<?xml version="1.0" encoding="utf-8"?>
<!-- Generator: Adobe Illustrator 17.0.0, SVG Export Plug-In . SVG Version: 6.00 Build 0)  -->
<!DOCTYPE svg PUBLIC "-//W3C//DTD SVG 1.1//EN" "http://www.w3.org/Graphics/SVG/1.1/DTD/svg11.dtd">
<svg version="1.1" id="Layer_1" xmlns="http://www.w3.org/2000/svg" xmlns:xlink="http://www.w3.org/1999/xlink" x="0px" y="0px"
	 width="348px" height="92.667px" viewBox="0 0 348 92.667" enable-background="new 0 0 348 92.667" xml:space="preserve">
<g>
	<g>
		<g id="onzkcJ.tif">
			<g>
				<path fill-rule="evenodd" clip-rule="evenodd" fill="#F03E2F" d="M41.403,39.764c2.309-3.42,4.486-6.939,6.951-10.243
					c7.827-10.49,22.394-9.972,29.562,0.973c1.986,3.033,3.982,6.06,5.974,9.091c4.116,6.441,8.232,12.882,12.346,19.322
					c-0.783,0.006-1.273-0.535-1.861-0.936c-3.259-2.21-6.873-3.574-10.808-3.282c-7.377,0.548-12.439,4.68-15.919,10.991
					c-1.698,2.357-3.551,4.615-4.803,7.268c-1.507,2.018-3.014,4.035-4.521,6.051c-0.64-0.074-1.033,0.334-1.488,0.693
					c-8.124,6.426-17.222,4.633-23.524-2.486c-4.696-5.307-7.849-11.807-11.844-17.67c-0.904-1.326-0.811-1.992,0.755-2.362
					c4.795-0.77,8.868-2.817,11.758-6.827C36.5,46.851,38.933,43.294,41.403,39.764z"/>
				<path fill-rule="evenodd" clip-rule="evenodd" fill="#F69201" d="M3.55,46.038C0.28,37.7,3.732,28.37,11.678,24.072
					c7.739-4.187,17.532-1.934,22.697,5.26c0.867,1.207,1.578,2.527,2.36,3.795c-0.991,0.188-1.207,1.122-1.687,1.788
					c-2.616,3.627-4.617,7.729-8.031,10.74c-3.859,3.403-8.329,4.9-13.533,4.249c-3.273-0.41-6.239-1.349-8.726-3.575
					C4.413,46.018,3.987,45.992,3.55,46.038z"/>
				<path fill-rule="evenodd" clip-rule="evenodd" fill="#9E1B62" d="M112.701,61.002c-3.435,5.902-7.343,11.502-11.044,17.234
					c-0.101,0.156-0.354,0.213-0.537,0.317c-0.832-0.057-1.203,0.648-1.776,1.039c-3.425,2.326-7.203,4.035-11.354,3.541
					c-6.996-0.832-11.942-4.855-15.202-11.025c1.103-1.734,2.048-3.596,3.339-5.176c4.564-5.586,10.253-8.604,17.699-7.272
					c1.111,0.199,2.24,0.305,3.36,0.455c3.546,3.221,7.498,4.433,12.157,2.615C110.537,62.266,111.326,61.07,112.701,61.002z"/>
				<path fill-rule="evenodd" clip-rule="evenodd" fill="#E23C2D" d="M22.223,57.173c-1.566,0.37-1.659,1.036-0.755,2.362
					c3.995,5.863,7.147,12.363,11.844,17.67c6.302,7.119,15.4,8.912,23.524,2.486c0.455-0.359,0.849-0.768,1.488-0.693
					c-1.92,3.398-4.42,6.295-7.62,8.535c-7.583,5.309-17.464,3.617-23.388-4.482c-4.829-6.602-9.1-13.613-13.574-20.471
					c-2.096-3.213-4.091-6.492-6.131-9.741c0.27,0.055,0.612,0.022,0.799,0.177C12.437,56.333,17.089,57.549,22.223,57.173z"/>
				<path fill-rule="evenodd" clip-rule="evenodd" fill="#5D2782" d="M112.701,61.002c-1.375,0.068-2.164,1.264-3.357,1.729
					c-4.66,1.818-8.611,0.605-12.157-2.615c-0.316-0.404-0.632-0.805-0.948-1.207c-4.116-6.442-8.232-12.882-12.348-19.324
					c1.594-2.154,3.188-4.309,4.781-6.462c0.766,0.005,1.044,0.562,1.403,1.124c3.586,5.626,7.162,11.259,10.818,16.839
					c3.483,5.316,9.056,6.598,14.666,3.498c0.608-0.336,1.082-0.97,1.884-0.911c-1.278,2.007-2.558,4.013-3.837,6.021
					c-0.426,0.131-0.548,0.455-0.549,0.857l0.017-0.025c-0.14,0.164-0.28,0.326-0.419,0.49L112.701,61.002z"/>
				<path fill-rule="evenodd" clip-rule="evenodd" fill="#E98901" d="M22.223,57.173c-5.134,0.375-9.786-0.84-13.813-4.157
					c-0.188-0.154-0.529-0.122-0.799-0.177l0.034,0.017c0.054-0.418-0.071-0.732-0.504-0.866c0,0,0.07,0.052,0.07,0.052
					c-0.17-0.172-0.34-0.344-0.51-0.516c-1.353-1.655-2.47-3.447-3.149-5.488c0.437-0.046,0.862-0.02,1.208,0.291
					c2.486,2.227,5.453,3.165,8.726,3.575c5.204,0.651,9.674-0.846,13.533-4.249c3.413-3.011,5.415-7.113,8.031-10.74
					c0.479-0.666,0.695-1.6,1.687-1.788c1.77,2.062,2.727,4.696,4.67,6.636c-2.472,3.532-4.905,7.089-7.423,10.584
					C31.091,54.357,27.018,56.404,22.223,57.173z"/>
				<path fill-rule="evenodd" clip-rule="evenodd" fill="#971A5E" d="M72.787,72.107c3.259,6.17,8.206,10.193,15.202,11.025
					c4.152,0.494,7.93-1.215,11.354-3.541c0.574-0.391,0.945-1.096,1.776-1.039c-3.716,7.313-9.985,12.601-18.231,11.971
					c-5.731-0.439-9.876-3.586-13.344-7.85c-0.754-0.928-1.346-1.986-2.011-2.984c1.609-2.527,3.218-5.055,4.827-7.582
					C72.502,72.107,72.645,72.107,72.787,72.107z"/>
				<path fill-rule="evenodd" clip-rule="evenodd" fill="#881855" d="M72.36,72.107c-1.609,2.527-3.218,5.055-4.827,7.582
					c-1.563-2.246-3.125-4.494-4.688-6.742c1.252-2.652,3.105-4.91,4.803-7.268C69.697,67.473,71,69.811,72.36,72.107z"/>
				<path fill-rule="evenodd" clip-rule="evenodd" fill="#E23C2D" d="M7.14,51.99c0.434,0.134,0.559,0.448,0.504,0.866
					C7.216,52.718,7.143,52.375,7.14,51.99z"/>
				<path fill-rule="evenodd" clip-rule="evenodd" fill="#9E1B62" d="M113.055,60.551c0.001-0.402,0.123-0.727,0.549-0.857
					C113.51,60.035,113.435,60.391,113.055,60.551z"/>
				<path fill-rule="evenodd" clip-rule="evenodd" fill="#E23C2D" d="M6.7,51.526c0.17,0.172,0.34,0.344,0.51,0.516
					C6.877,52.032,6.794,51.773,6.7,51.526z"/>
				<path fill-rule="evenodd" clip-rule="evenodd" fill="#9E1B62" d="M112.652,61.016c0.14-0.164,0.279-0.326,0.419-0.49
					C112.932,60.689,112.792,60.852,112.652,61.016z"/>
				<path fill-rule="evenodd" clip-rule="evenodd" fill="#911959" d="M72.36,72.107c-1.36-2.297-2.664-4.635-4.712-6.428
					c3.48-6.311,8.542-10.443,15.919-10.991c3.936-0.292,7.549,1.071,10.808,3.282c0.587,0.4,1.078,0.941,1.861,0.936
					c0.318,0.404,0.634,0.805,0.95,1.209c-1.121-0.15-2.249-0.256-3.36-0.455c-7.447-1.332-13.135,1.686-17.699,7.272
					c-1.291,1.58-2.236,3.441-3.339,5.176C72.645,72.107,72.502,72.107,72.36,72.107z"/>
			</g>
		</g>
		<path fill-rule="evenodd" clip-rule="evenodd" fill="#115EEA" d="M124.741,53.85c-1.695-5.167-3.104-9.093-4.252-13.094
			c-0.643-2.241-1.673-3.345-4.125-3.946c-10.337-2.534-15.979-12.685-12.844-22.563c3.032-9.554,13.261-14.686,22.683-11.382
			c9.522,3.338,14.367,13.85,10.47,23.479C133.08,35.219,129.067,43.926,124.741,53.85z"/>
		<path fill-rule="evenodd" clip-rule="evenodd" fill="#662B8F" d="M115.665,39.667c-13.557-3.283-16.071-13.964-16.106-21.319
			c-5.081,6.15-9.513,12.293-10.888,14.774c0.766,0.005,1.044,0.562,1.403,1.124c3.586,5.626,7.162,11.259,10.818,16.839
			c3.483,5.316,9.056,6.598,14.666,3.498c0.608-0.336,1.082-0.97,1.884-0.911c0.292-0.443,1.392-1.979,2.908-4.085
			C117.952,40.48,115.665,39.667,115.665,39.667z"/>
	</g>
	<g>
		<path fill="#FFFFFF" d="M195.06,47.716h-5.453l-4.236-10.712l-3.604-10.761l-3.555,10.858l-4.139,10.615h-5.453l-12.513-34.083
			h7.206l8.034,24.589l8.277-24.589h4.187l8.522,24.589l7.79-24.589h7.206L195.06,47.716z"/>
		<path fill="#FFFFFF" d="M236.684,47.716h-25.515c0-11.345,0-22.739,0-34.083h25.515v6.232h-19.136v7.839h18.454v5.989h-18.454
			v7.693h19.136V47.716z"/>
		<path fill="#FFFFFF" d="M269.351,23.517c0,2.629-1.266,5.161-4.431,6.573c3.992,1.217,5.453,5.453,5.453,7.596
			c0,7.596-5.696,10.03-12.757,10.03c-5.404,0-10.761,0-16.165,0V13.632c5.355,0,10.761,0,16.165,0
			C264.337,13.632,269.351,16.651,269.351,23.517z M247.781,27.315h9.836c4.041,0,5.356-1.704,5.356-3.652
			c0-1.558-1.267-4.188-5.356-4.188h-9.836V27.315z M247.781,41.727h9.836c2.629,0,6.379-0.876,6.379-4.09
			c0-3.067-3.75-4.674-6.379-4.674h-9.836V41.727z"/>
	</g>
	<g>
		<g>
			<path fill="#FFFFFF" d="M163.386,84.227h-25.514c0-11.345,0-22.738,0-34.083h25.514v6.232H144.25v7.839h18.454v5.988H144.25
				v7.693h19.136V84.227z"/>
			<path fill="#FFFFFF" d="M191.476,50.143h7.061v0.292l-11.54,16.555l11.881,17.042v0.194h-7.206l-8.716-12.806l-8.716,12.806
				h-7.206v-0.194l11.832-17.042l-11.491-16.555v-0.292h7.06l8.521,12.708L191.476,50.143z"/>
			<path fill="#FFFFFF" d="M218.739,74.196h-9.641v10.03h-6.428V50.143c5.356,0,10.712-0.049,16.068-0.049
				C235.392,50.094,235.439,74.196,218.739,74.196z M209.099,68.305h9.641c8.229,0,8.18-12.075,0-12.075h-9.641V68.305z"/>
			<path fill="#FFFFFF" d="M260.999,84.227h-25.515c0-11.345,0-22.738,0-34.083h25.515v6.232h-19.136v7.839h18.454v5.988h-18.454
				v7.693h19.136V84.227z"/>
			<path fill="#FFFFFF" d="M296.198,84.227h-7.645l-9.933-11.394h-6.185v11.394h-6.427V50.094c5.404,0,10.809,0.049,16.214,0.049
				c8.034,0.049,12.271,5.405,12.271,11.296c0,4.674-2.143,9.397-8.618,10.712l10.322,11.637V84.227z M272.436,56.132v10.907h9.787
				c4.09,0,5.843-2.727,5.843-5.454c0-2.726-1.802-5.453-5.843-5.453H272.436z"/>
			<path fill="#FFFFFF" d="M298.872,84.227V50.143h6.379v34.083H298.872z"/>
			<path fill="#FFFFFF" d="M345.808,67.38c-0.097,8.813-5.502,17.626-17.479,17.626c-11.979,0-17.529-8.618-17.529-17.577
				c0-8.96,5.746-17.967,17.529-17.967C340.062,49.461,345.905,58.469,345.808,67.38z M317.129,67.525
				c0.147,5.6,3.165,11.589,11.199,11.589c8.034,0,11.053-6.038,11.15-11.638c0.097-5.745-3.116-12.172-11.15-12.172
				C320.294,55.304,316.983,61.78,317.129,67.525z"/>
		</g>
	</g>
</g>
</svg>
