<?xml version="1.0" encoding="utf-8"?>
<!-- Generator: Adobe Illustrator 16.0.0, SVG Export Plug-In . SVG Version: 6.00 Build 0)  -->
<!DOCTYPE svg PUBLIC "-//W3C//DTD SVG 1.1//EN" "http://www.w3.org/Graphics/SVG/1.1/DTD/svg11.dtd">
<svg version="1.1" id="Layer_1" xmlns="http://www.w3.org/2000/svg" xmlns:xlink="http://www.w3.org/1999/xlink" x="0px" y="0px"
	 width="258.333px" height="25px" viewBox="0 0 258.333 25" enable-background="new 0 0 258.333 25" xml:space="preserve">
<path fill="#AAB7C4" d="M21.7,6l-2.8,13h-3.4l2.8-13H21.7z M35.8,14.4l1.8-4.9l1,4.9H35.8z M39.6,19h3.1L40,6h-2.9
	c-0.6,0-1.2,0.4-1.4,1l-5,12h3.5l0.7-1.9h4.3L39.6,19z M30.8,14.7c0-3.4-4.7-3.6-4.7-5.1c0.1-0.7,0.7-1.1,1.4-1.1
	c1.1-0.1,2.3,0.1,3.3,0.6l0.6-2.8c-1-0.4-2.1-0.6-3.1-0.6c-3.3,0-5.7,1.8-5.7,4.3c0,1.9,1.7,2.9,2.9,3.5c1.3,0.6,1.8,1,1.7,1.6
	c0,0.9-1,1.301-2,1.301c-1.2,0-2.4-0.301-3.5-0.801L21.1,18.4c1.2,0.5,2.5,0.699,3.7,0.699C28.5,19.2,30.8,17.4,30.8,14.7 M16.9,6
	l-5.4,13H7.9L5.2,8.6c0-0.5-0.4-0.9-0.8-1.1C3.4,7,2.3,6.6,1.1,6.4L1.2,6h5.7c0.8,0,1.4,0.6,1.5,1.3l1.4,7.5L13.4,6H16.9z"/>
<path fill="#AAB7C4" d="M164.4,11.5v-1.3c0-0.5-0.5-1-1-1H162v2.3h-1.5V5h3.701C165.1,4.9,166,5.5,166.1,6.4v0.5
	c0,0.6-0.3,1.2-0.899,1.5c0.5,0.3,0.799,0.9,0.699,1.5v1.6H164.4 M161.9,7.7h1.6c0.301,0.1,0.701-0.1,0.801-0.4
	c0.1-0.3-0.1-0.7-0.4-0.8h-2V7.7 M183.201,11.5l-2.4-4.4v4.4h-3l-0.5-1.4H174.5l-0.5,1.4H170.8c0,0-2-0.3-2-3.1
	c0-3.4,1.699-3.5,2.4-3.5h1.899v1.5h-1.5c-0.7,0.1-1.2,0.7-1.101,1.4v0.5c0,2.2,2.601,1.5,2.701,1.5l1.899-4.9h2.101l2.299,5.9V5
	h2.101L184,9.3V5h1.5v6.6L183.201,11.5 M175.201,8.5h1.5L176,6.6L175.201,8.5 M152.5,11.5V7l-1.9,4.5h-1.2L147.5,7v4.5h-3l-0.5-1.4
	h-2.8l-0.5,1.4H139l2.5-6.6h2.1l2.3,6V5h2.4l1.7,4.1l1.7-4.1h2.4v6.6L152.5,11.5 M141.8,8.5h1.5l-0.7-1.9L141.8,8.5 M154.9,11.5V5
	h4.7v1.5h-3.2v1h3.1V9h-3.1v1.1h3.2v1.4H154.9 M166.701,11.6V5h1.5v6.6H166.701 M170,20v-1.3c0-0.601-0.5-1-1.1-1h-1.6V20h-1.6v-6.5
	h3.899c1-0.2,1.899,0.5,2,1.5v0.4c0,0.6-0.3,1.199-0.899,1.5c0.5,0.3,0.799,0.898,0.799,1.5V20H170 M167.4,16.2h1.7
	c0.3,0.1,0.7-0.101,0.8-0.4c0.1-0.299-0.1-0.7-0.4-0.8c-0.1-0.1-0.299-0.1-0.399,0h-1.7V16.2 M159.3,20h-1.4l-1.7-1.9l-1.7,1.9h-6
	v-6.5h5.9l1.8,2.1l1.9-2.1h5.101c1-0.1,1.899,0.5,2,1.5v0.4c0,1.898-0.701,2.5-2.801,2.5h-1.6V20H159.3 M157.3,16.8l2,2.3v-4.5
	L157.3,16.8 M150.1,18.6h3.4l1.6-1.8l-1.6-1.8h-3.4v1h3.3v1.5h-3.3V18.6 M160.9,16.2h1.7c0.3,0.1,0.7-0.101,0.8-0.4
	c0.1-0.299-0.1-0.7-0.4-0.8c-0.1-0.1-0.299-0.1-0.399,0h-1.7V16.2 M181,20H178.1v-1.5h2.5c0,0,0.899,0.1,0.899-0.5
	s-1.399-0.5-1.399-0.5c-1.101,0.2-2-0.6-2.2-1.6V15.6c-0.1-1,0.7-1.898,1.7-2H183V15h-2.5c0,0-0.899-0.2-0.899,0.5
	c0,0.5,1.2,0.5,1.2,0.5s2.5-0.2,2.5,1.8c0.1,1.101-0.6,2.101-1.801,2.3H181.1L181,20 M172.4,20v-6.5h5V15H174v1h3.301v1.5H174v1.1
	h3.4V20H172.4 M186.6,20h-2.899v-1.5h2.5c0,0,0.899,0.1,0.899-0.5s-1.399-0.5-1.399-0.5c-1.101,0.2-2-0.6-2.201-1.7v-0.3
	c-0.1-1,0.701-1.9,1.701-2h3.399V15h-2.5c0,0-0.899-0.2-0.899,0.5c0,0.5,1.199,0.5,1.199,0.5s2.5-0.2,2.5,1.8
	c0.1,1.101-0.6,2.101-1.8,2.3h-0.399C186.701,20,186.701,20,186.6,20 M203,8h-2.5v8.9h2.5c1.101,0.1,2.201-0.301,3.101-1
	c1-0.9,1.601-2.102,1.601-3.4c0.1-2.4-1.8-4.4-4.199-4.5H203z M205,14.7c-0.6,0.5-1.5,0.8-2.299,0.7h-0.5V9.5h0.5
	C203.5,9.4,204.4,9.7,205,10.2c0.601,0.6,0.9,1.4,0.9,2.2C205.9,13.3,205.6,14.1,205,14.7z M208.4,16.9h1.699V8H208.4V16.9z
	 M214.201,11.4c-1-0.4-1.301-0.6-1.301-1.1c0.1-0.6,0.6-1.1,1.199-1c0.5,0,1,0.3,1.4,0.7l0.899-1.2c-0.7-0.6-1.601-1-2.5-1
	c-1.399-0.1-2.601,1-2.7,2.4v0.1c0,1.2,0.5,1.9,2.1,2.4c0.4,0.1,0.801,0.3,1.201,0.5c0.299,0.2,0.5,0.5,0.5,0.899
	c0,0.699-0.601,1.301-1.201,1.301h-0.1c-0.8,0-1.5-0.5-1.8-1.2l-1.101,1.1c0.601,1.101,1.8,1.7,3,1.7c1.601,0.1,2.899-1.1,3-2.7V14
	C216.701,12.8,216.201,12.2,214.201,11.4z M217.3,12.5c0,2.5,2,4.6,4.5,4.6c0.8,0,1.5-0.199,2.199-0.5v-2c-0.5,0.602-1.199,1-2,1
	c-1.6,0-2.899-1.199-2.899-2.8v-0.2c-0.101-1.6,1.2-3,2.801-3.1c0.8,0,1.601,0.4,2.101,1v-2c-0.601-0.4-1.4-0.5-2.101-0.5
	C219.3,7.8,217.3,9.9,217.3,12.5z M237.6,14l-2.3-6H233.5l3.701,9.1h0.898l3.699-9.1H240L237.6,14L237.6,14z M242.6,16.9h4.801v-1.5
	H244.3V13h3v-1.5h-3v-2h3.101V8H242.6V16.9z M254.1,10.6C254.1,8.9,253,8,251,8h-2.5v8.9h1.701V13.3h0.199l2.301,3.601h2.1
	l-2.7-3.699C253.3,13,254.201,11.9,254.1,10.6L254.1,10.6z M250.701,12.1h-0.5V9.4h0.5c1.1,0,1.6,0.5,1.6,1.3
	C252.3,11.6,251.8,12.1,250.701,12.1z"/>
<path opacity="0.5" fill="#AAB7C4" enable-background="new    " d="M229.201,7.9c-2.5,0-4.602,2-4.602,4.6c0,2.5,2,4.6,4.602,4.7
	c2.6,0.1,4.6-2,4.699-4.6C233.8,10,231.8,7.9,229.201,7.9z"/>
<g>
	<path fill="#AAB7C4" d="M83.2,10c-0.6,0-1.4,0.2-1.8,0.9c-0.3-0.5-0.9-0.9-1.7-0.9c-0.5,0-1.1,0.1-1.5,0.7v-0.6h-1.1V15h1.1v-2.7
		c0-0.8,0.6-1.3,1.3-1.3s1.1,0.5,1.1,1.3V15h1.1v-2.7c0-0.8,0.6-1.3,1.3-1.3s1.1,0.5,1.1,1.3V15h1.1v-3C85.2,10.8,84.4,10,83.2,10z
		 M90.1,10.8c-0.3-0.4-0.8-0.7-1.5-0.7c-1.4,0-2.4,1.1-2.4,2.6s1.1,2.6,2.4,2.6c0.7,0,1.2-0.3,1.5-0.7V15h1.1v-4.9h-1.1V10.8z
		 M88.7,14.2c-0.9,0-1.5-0.7-1.5-1.6s0.6-1.6,1.5-1.6c0.9,0,1.5,0.7,1.5,1.6S89.6,14.2,88.7,14.2z M94.9,12.1L94.4,12
		c-0.4-0.1-0.8-0.2-0.8-0.5s0.3-0.6,0.9-0.6s1.2,0.2,1.5,0.4l0.5-0.8c-0.5-0.3-1.2-0.5-2-0.5c-1.2,0-2,0.6-2,1.6
		c0,0.8,0.6,1.3,1.6,1.4l0.5,0.1c0.6,0.102,0.8,0.301,0.8,0.5c0,0.4-0.4,0.602-1.1,0.602c-0.8,0-1.3-0.2-1.6-0.5l-0.5,0.8
		c0.7,0.5,1.6,0.601,2.1,0.601c1.4,0,2.2-0.699,2.2-1.601C96.6,12.7,96,12.3,94.9,12.1z M100.3,14.2c-0.4,0-0.8-0.3-0.8-0.9v-2.1
		h1.9v-1h-1.9V8.7h-1.1v1.5h-1v1h1v2.1c0,1.3,0.6,1.9,1.7,1.9c0.6,0,1.1-0.2,1.5-0.5l-0.4-0.9C100.9,14,100.6,14.2,100.3,14.2z
		 M104.7,10c-1.4,0-2.4,1-2.4,2.6s1,2.6,2.5,2.6c0.7,0,1.4-0.2,2-0.7l-0.5-0.8c-0.4,0.3-0.9,0.5-1.4,0.5c-0.7,0-1.3-0.4-1.4-1.2h3.6
		v-0.4C107,11.1,106.1,10,104.7,10z M103.4,12.2c0.1-0.7,0.5-1.2,1.3-1.2c0.7,0,1.1,0.4,1.2,1.2H103.4z M109.3,10.7v-0.6h-1.1V15
		h1.1v-2.7c0-0.8,0.5-1.3,1.2-1.3c0.3,0,0.6,0.1,0.8,0.2l0.3-1.1c-0.2-0.1-0.5-0.1-0.8-0.1C110.1,10,109.6,10.2,109.3,10.7z
		 M114.3,11c0.5,0,0.8,0.2,1.2,0.5l0.7-0.7c-0.4-0.5-1.1-0.8-1.8-0.8c-1.5,0-2.6,1.1-2.6,2.6c0,1.5,1,2.6,2.6,2.6
		c0.7,0,1.4-0.3,1.8-0.8l-0.7-0.7c-0.3,0.3-0.7,0.5-1.2,0.5c-0.8,0-1.4-0.601-1.4-1.6C112.9,11.6,113.5,11,114.3,11z M120.7,10.8
		c-0.3-0.4-0.8-0.7-1.5-0.7c-1.4,0-2.4,1.1-2.4,2.6s1.1,2.6,2.4,2.6c0.7,0,1.2-0.3,1.5-0.7V15h1.1v-4.9h-1.1V10.8z M119.3,14.2
		c-0.9,0-1.5-0.7-1.5-1.6s0.6-1.6,1.5-1.6c0.9,0,1.5,0.7,1.5,1.6S120.2,14.2,119.3,14.2z M124.4,10.7v-0.6h-1.1V15h1.1v-2.7
		c0-0.8,0.5-1.3,1.2-1.3c0.3,0,0.6,0.1,0.8,0.2l0.3-1.1c-0.2-0.1-0.5-0.1-0.8-0.1C125.2,10,124.7,10.2,124.4,10.7z M130.8,7.7v3
		c-0.3-0.4-0.8-0.7-1.5-0.7c-1.4,0-2.4,1.1-2.4,2.6c0,1.5,1.1,2.6,2.4,2.6c0.7,0,1.2-0.3,1.5-0.7V15h1.1V7.7H130.8z M129.4,14.2
		c-0.9,0-1.5-0.7-1.5-1.6s0.6-1.6,1.5-1.6s1.5,0.7,1.5,1.6S130.3,14.2,129.4,14.2z M57.2,12.6c0-2.4,1.1-4.5,2.8-5.9
		c-1.3-1-2.9-1.6-4.6-1.6C51.3,5,48,8.4,48,12.6c0,4.2,3.3,7.6,7.4,7.6c1.7,0,3.3-0.601,4.6-1.601C58.3,17.1,57.2,15,57.2,12.6z"/>
	<path opacity="0.5" fill="#AAB7C4" enable-background="new    " d="M64.6,5c-1.7,0-3.3,0.6-4.6,1.6c1.7,1.4,2.8,3.5,2.8,5.9
		c0,2.4-1.1,4.5-2.8,5.9c1.3,1,2.9,1.6,4.6,1.6c4.1,0,7.4-3.4,7.4-7.5C72,8.4,68.7,5,64.6,5z"/>
	<path opacity="0.75" fill="#AAB7C4" enable-background="new    " d="M62.8,12.6c0-2.4-1.1-4.5-2.8-5.9c-1.7,1.4-3.8,3.5-3.8,5.9
		s2,4.5,3.8,5.9C61.7,17.1,62.8,15,62.8,12.6z"/>
</g>
</svg>
