<svg xmlns="http://www.w3.org/2000/svg" viewBox="0 0 252.79 370.52">
    <defs>
        <style>
            .cls-1,
            .cls-10 {
                fill: #bde4ff;
            }
            .cls-2 {
                fill: #fff;
            }
            .cls-3 {
                fill: #ff9700;
            }
            .cls-4 {
                fill: #ffbd00;
            }
            .cls-5 {
                fill: #ffe266;
            }
            .cls-6 {
                fill: #56261b;
            }
            .cls-7 {
                fill: #6d392b;
            }
            .cls-8 {
                fill: #a55d4c;
            }
            .cls-9 {
                fill: #030617;
            }
            .cls-10 {
                opacity: 0.6;
            }
            .cls-11 {
                opacity: 0.7;
            }
        </style>
    </defs>
    <g id="Layer_2" data-name="Layer 2">
        <g id="Layer_1-2" data-name="Layer 1">
            <ellipse class="cls-1" cx="81.35" cy="136.35" rx="30.97" ry="52.66" transform="translate(-77.1 146.53) rotate(-62.85)" />
            <ellipse class="cls-2" cx="84.88" cy="129.45" rx="23.23" ry="39.49" transform="translate(-69.04 145.93) rotate(-62.85)" />
            <ellipse class="cls-1" cx="86.16" cy="194.12" rx="24.17" ry="50.3" transform="translate(-109.44 276.84) rotate(-88.99)" />
            <ellipse class="cls-2" cx="86.27" cy="187.83" rx="17.88" ry="37.21" transform="translate(-103.05 270.77) rotate(-88.99)" />
            <ellipse class="cls-1" cx="199.47" cy="179.81" rx="28.37" ry="48.24" transform="translate(-14.32 342.33) rotate(-79.27)" />
            <ellipse class="cls-2" cx="200.79" cy="172.83" rx="21.27" ry="36.17" transform="translate(-6.39 337.95) rotate(-79.27)" />
            <ellipse class="cls-1" cx="163.51" cy="218.87" rx="22.14" ry="46.08" transform="translate(-109.69 218.4) rotate(-53.14)" />
            <ellipse class="cls-2" cx="166.96" cy="214.26" rx="16.37" ry="34.08" transform="translate(-104.62 219.32) rotate(-53.14)" />
            <path
                class="cls-3"
                d="M178.54,209c-.09.26-.17.5-.27.75a58.16,58.16,0,0,1-17.81,25.51c-13.23,10.85-30.73,15-47.05,9.36s-27.51-19.45-31.35-36a58.17,58.17,0,0,1,1.54-31.32c.08-.26.16-.5.25-.76a58.79,58.79,0,0,1,14-22.6c13.57-13.53,33.06-19.21,51.11-13s29.95,22.64,32.35,41.65A58.66,58.66,0,0,1,178.54,209Z"
            />
            <ellipse class="cls-4" cx="134.55" cy="182.99" rx="44.5" ry="40.63" transform="translate(-82.2 250.87) rotate(-71.06)" />
            <ellipse class="cls-5" cx="133.52" cy="186" rx="27.31" ry="24.94" transform="translate(-85.75 251.93) rotate(-71.06)" />
            <path class="cls-6" d="M178.54,209c-.09.26-.17.5-.27.75L83.6,177.27c.08-.26.16-.5.25-.76a58.79,58.79,0,0,1,14-22.6l83.46,28.64A58.66,58.66,0,0,1,178.54,209Z" />
            <path class="cls-7" d="M175.61,180.58l-72-24.7a48.24,48.24,0,0,0-7.49,13.92,49.44,49.44,0,0,0-2.4,10.95l74.43,25.53a48.66,48.66,0,0,0,7.46-25.7Z" />
            <path class="cls-8" d="M156.72,174.1,122.5,162.36a28.63,28.63,0,0,0-12.57,15.55,29.3,29.3,0,0,0-1.56,7.86l45.14,15.49a29.53,29.53,0,0,0,3.59-7.17A28.61,28.61,0,0,0,156.72,174.1Z" />
            <path class="cls-6" d="M160.46,235.26c-13.23,10.85-30.73,15-47.05,9.36s-27.51-19.45-31.35-36c11.18,5.42,30.18,14.47,37.09,16.84C126.38,227.91,148.64,232.76,160.46,235.26Z" />
            <path
                class="cls-6"
                d="M216.19,237.11a25.18,25.18,0,0,0,2.9-2.18c2.67-2.27,2.58-6.76-.3-14.14a80,80,0,0,0-4.87-10.15,4.39,4.39,0,0,0-1.78-1.6,5.79,5.79,0,0,0-.13-4.83c-2.5-4.85-12-4.91-13.89-4.87h-.26l-7.07,1.8-.07,0a28.15,28.15,0,0,0-5.62,2.46c-2.91,1.77-4.35,3.89-4.27,6.32a6.83,6.83,0,0,0,1.58,4c-1.71,2-6.94,8.63-5.29,15.61,1.57,6.66,5.64,8.4,7.49,8.86,3.82,3.28,7.34,2.43,9.09,1.64a6.86,6.86,0,0,0,7.8.42,7.76,7.76,0,0,0,1.16-.86,8.7,8.7,0,0,0,5.26.63,8,8,0,0,0,2.87-1.08,9.18,9.18,0,0,0,1.72-1.35,4.28,4.28,0,0,0,3.67-.66Z"
            />
            <path
                class="cls-2"
                d="M198.17,201.63s17.42-.35,10.53,8.91c0,0,2.51.05,3.26,1.28s9.89,17.77,5.65,21.36-4.86,2.95-4.94.41c0,0-1.55,3.75-5.13,4.35s-5.25-1.39-5.25-1.39-3.26,5.35-8.42.69c0,0-3.69,3.3-8.2-1,0,0-4.67-.27-6.33-7.26s5.22-14,5.22-14l3.5.66s-13.11-6.85,3.37-12.25Z"
            />
            <path class="cls-6" d="M194.53,202.22a45.09,45.09,0,0,0,.26,5,14.17,14.17,0,0,0,1.87.16c1.86-.47,3.74-.79,5.62-1.17,7.39-38.14-10.27-46.83-43.11-55.86-3.11,3.45-6.83,4.19-.45,5.67C189.77,162.36,199.22,182.13,194.53,202.22Z" />
            <circle class="cls-6" cx="211.33" cy="230.91" r="1.07" />
            <circle class="cls-6" cx="202.36" cy="232.53" r="1.07" />
            <circle class="cls-6" cx="194.47" cy="232.94" r="1.07" />
            <path class="cls-6" d="M204.06,204.64s-2.57,6.7-12.17,2Z" />
            <path
                class="cls-6"
                d="M37.54,192.15a24.18,24.18,0,0,1-1.68-3.21c-1.45-3.2.57-7.21,6.34-12.64A81.66,81.66,0,0,1,51,169.22a4.31,4.31,0,0,1,2.29-.67,5.79,5.79,0,0,1,2.19-4.3c4.34-3.31,13,.72,14.64,1.56l.23.12,5.61,4.66,0,0a27.17,27.17,0,0,1,4,4.64c1.87,2.84,2.25,5.38,1.14,7.54A6.89,6.89,0,0,1,78,185.71c.71,2.5,2.57,10.77-1.92,16.36-4.28,5.34-8.7,5.17-10.57,4.78-4.85,1.33-7.67-.95-8.91-2.41a6.87,6.87,0,0,1-7.23-3,8.79,8.79,0,0,1-.68-1.27,8.64,8.64,0,0,1-5-1.7,8,8,0,0,1-2.14-2.2,9.63,9.63,0,0,1-1-2,4.3,4.3,0,0,1-3-2.17Z"
            />
            <path
                class="cls-2"
                d="M69.05,167.86s-15.58-7.8-13.34,3.51c0,0-2.29-1-3.5-.24S35.65,182.93,37.94,188s3.12,4.74,4.28,2.48c0,0-.21,4.06,2.77,6.14s5.34,1,5.34,1,.65,6.24,7.3,4.24c0,0,1.92,4.56,7.84,2.62,0,0,4.33,1.77,8.83-3.84s1.32-14.92,1.32-14.92l-3.44-.9s14.78-.56,2.21-12.52Z"
            />
            <path class="cls-6" d="M72.08,170a41.74,41.74,0,0,1-2.4,4.44,14.38,14.38,0,0,1-1.76-.66c-1.47-1.22-3-2.32-4.57-3.47,9.71-37.62,29.39-37.87,62.93-31.92,1.32,4.45,4.37,6.71-2,5.31C93.51,136,76.48,149.79,72.08,170Z" />
            <circle class="cls-6" cx="44.59" cy="188.64" r="1.07" />
            <circle class="cls-6" cx="51.99" cy="193.96" r="1.07" />
            <circle class="cls-6" cx="58.94" cy="197.72" r="1.07" />
            <path class="cls-6" d="M62.44,168s-.56,7.16,10.15,7Z" />
            <path class="cls-6" d="M161.09,68.24,145.21,18.49,127.56,10.7a11.74,11.74,0,1,0-.59,4.85,30.46,30.46,0,0,1-1.51,6.62L136,26.8l13.23,41.47A21.3,21.3,0,0,1,161.09,68.24Z" />
            <path class="cls-6" d="M175.33,73.36,211.79,36l19.27.94a11.72,11.72,0,1,1-1.65,4.6,31.73,31.73,0,0,0-1.61,6.6l-11.46-.56L186,78.71A21.32,21.32,0,0,0,175.33,73.36Z" />
            <ellipse class="cls-3" cx="158.77" cy="111.5" rx="43.89" ry="51.74" transform="translate(1.78 225.5) rotate(-71.06)" />
            <path class="cls-5" d="M202.54,119.6c-6.7,19.51-30.77,28.92-53.77,21s-36.22-30.1-29.52-49.6S146.86,60.71,173,70C196,77.88,209.23,100.09,202.54,119.6Z" />
            <ellipse class="cls-4" cx="159.33" cy="109.85" rx="32.55" ry="44.03" transform="translate(3.73 224.91) rotate(-71.06)" />
            <path class="cls-7" d="M169.68,135.3l-1.62-.93c-2.3,4-14.08,6.19-18.54,5s-12.47-9.05-12.46-13.67H134a19.13,19.13,0,0,0,35.7,9.62Z" />
            <circle class="cls-6" cx="198.66" cy="104.07" r="30.04" />
            <circle class="cls-4" cx="198.66" cy="104.07" r="20.57" />
            <circle class="cls-6" cx="123.97" cy="84.25" r="29.95" />
            <circle class="cls-4" cx="123.97" cy="84.25" r="20.57" />
            <path class="cls-6" d="M164.59,85.7a32.15,32.15,0,0,0-15.29-1.4l-4.73,13.79a20.53,20.53,0,0,1,25.21,5L174,90.78A32.15,32.15,0,0,0,164.59,85.7Z" />
            <circle class="cls-9" cx="199.71" cy="104.43" r="11.29" />
            <circle class="cls-9" cx="123.87" cy="84.22" r="11.29" />
            <path class="cls-10" d="M218.12,110.74A20.58,20.58,0,0,1,192,123.53,20.57,20.57,0,0,1,179.2,97.39,20.53,20.53,0,0,1,204,84.21c.44.12.87.25,1.31.4a20.57,20.57,0,0,1,12.78,26.13Z" />
            <g class="cls-11">
                <path class="cls-2" d="M216.94,94.63l-27.05,28a20.3,20.3,0,0,1-8-6.71l28.06-29.1A20.39,20.39,0,0,1,216.94,94.63Z" />
                <path class="cls-2" d="M204,84.21l-25,26a20.21,20.21,0,0,1-.9-5.07l20.83-21.6A20.77,20.77,0,0,1,204,84.21Z" />
            </g>
            <path class="cls-10" d="M143.43,90.93a20.59,20.59,0,0,1-23.57,13.49,20,20,0,0,1-2.57-.71,20.58,20.58,0,0,1-11-9,20.75,20.75,0,0,1-1.84-4.08,20.58,20.58,0,0,1,25.23-26.17l1,.32a20.57,20.57,0,0,1,12.79,26.14Z" />
            <g class="cls-11">
                <path class="cls-2" d="M144,79.42l-24.11,25a20,20,0,0,1-2.57-.71,20.32,20.32,0,0,1-7.16-4.23l28.56-29.6A20.68,20.68,0,0,1,144,79.42Z" />
                <path class="cls-2" d="M133.78,66.17,106.25,94.72a20.75,20.75,0,0,1-1.84-4.08l25.23-26.17,1,.32A20.59,20.59,0,0,1,133.78,66.17Z" />
            </g>
            <path
                class="cls-6"
                d="M10.24,366.73c-.53-.32-1.07-.67-1.59-1-5.91-4.14-9-10-8.62-16.5.36-6.87,4.55-13.84,10.19-16.95,4.82-2.67,9.22-4.29,14.46-4.12l4.69-7.5a6.77,6.77,0,0,1-1.23-7c2.25-5.48,11.63-12.41,27.19-7.66a19.14,19.14,0,0,1,4.26,1.86c4,2.45,6,6.33,5.43,10.65a13.19,13.19,0,0,1-2.5,6l.14.14c.29.3,6.93,7.52-6.17,20.27-9,8.75-10.29,11.05-11.79,13.71-.53.93-1.07,1.9-1.94,3.16-1.8,2.66-6.29,6.09-12.25,7.77a25.06,25.06,0,0,1-20.27-2.79Z"
            />
            <path
                class="cls-2"
                d="M35.62,323.49s-8.19-3.92-6-9.27,11.27-11,25.23-6.73,8.77,18,0,20.58c0,0,.38,2.46,2,1a36.54,36.54,0,0,1,4.6-3.31s6,6.21-6.14,18-10.55,12.13-13.93,17.12-17.94,13.27-31.85,3.52-7.07-26,1.42-30.72,15.4-6,28.94.69c0,0,1.27-.75-.85-1.69s-8.22-4.06-12.66-4.29l4.16-6.64S35.44,326.67,35.62,323.49Z"
            />
            <path class="cls-6" d="M97.34,219s-30.67,20.6-41.5,47.31S42.66,313.8,42.66,313.8s6.51,5.32,9,.85S57.9,263.52,82,243.24,106.22,219.55,97.34,219Z" />
            <path class="cls-6" d="M38.9,311.65s7,10.18,15.41,2.73Z" />
            <path
                class="cls-6"
                d="M90.89,357.36c.59.19,1.21.37,1.83.53,7,1.77,13.43.26,18.13-4.25,5-4.76,7.5-12.49,6.18-18.79-1.13-5.39-2.78-9.78-6.32-13.64l2.61-8.45a6.76,6.76,0,0,0,6.12-3.65c2.68-5.29,1.8-16.91-12-25.6a19,19,0,0,0-4.19-2c-4.47-1.45-8.7-.42-11.6,2.83a13.15,13.15,0,0,0-2.93,5.83h-.2c-.42,0-10.22-.34-11.33,17.91-.76,12.52-1.65,15-2.68,17.88-.36,1-.73,2.05-1.13,3.53-.83,3.1-.5,8.74,2.12,14.35a25,25,0,0,0,15.34,13.53Z"
            />
            <path
                class="cls-2"
                d="M107.06,309.91s8.32,3.64,10.94-1.53,1-15.71-11.38-23.5S87.25,290,91,298.28c0,0-2.11,1.32-2-.87a36.44,36.44,0,0,0-.49-5.64s-8.6-.46-9.62,16.39S76.55,324.08,75,329.9s1.66,22.25,18.13,26.42,24.32-11.64,22.34-21.14S109.94,319.59,96,313.72c0,0-.27-1.46,1.83-.46s8.44,3.57,11.52,6.78l2.31-7.48S104.77,312.12,107.06,309.91Z"
            />
            <path class="cls-6" d="M133.29,233.89s8.28,24.75-1.6,40.27a94.31,94.31,0,0,1-21.9,24.12s-8.14-1.87-6.94-4.83,29.22-21.45,25.43-42.31S126.61,229,133.29,233.89Z" />
            <path class="cls-6" d="M113.89,299.69s-12.28,1.35-12.13-9.89Z" />
        </g>
    </g>
</svg>
