<svg class="bottom-fixed" xmlns="http://www.w3.org/2000/svg" viewBox="0 0 370.17 841.89">
    <defs>
        <style>
            .right-tree-cls-1 {
                isolation: isolate;
            }
            .right-tree-cls-2 {
                fill: #96ccca;
            }
            .right-tree-cls-3 {
                fill: #a9a93a;
            }
            .right-tree-cls-4 {
                fill: #853e3d;
            }
            .right-tree-cls-5 {
                fill: #783434;
            }
            .right-tree-cls-6 {
                fill: #583835;
            }
            .right-tree-cls-7 {
                fill: #d1d64f;
            }
            .right-tree-cls-8 {
                fill: #c3c23e;
            }
            .right-tree-cls-9 {
                fill: #8b8f39;
            }
            .right-tree-cls-10 {
                fill: #674741;
            }
            .right-tree-cls-11 {
                fill: #a9a738;
            }
            .right-tree-cls-12 {
                fill: #5f3e3a;
            }
            .right-tree-cls-13 {
                fill: #a2a542;
            }
            .right-tree-cls-14 {
                fill: #f2e364;
            }
            .right-tree-cls-15 {
                fill: #4f332f;
            }
            .right-tree-cls-16 {
                fill: #c4c444;
            }
            .right-tree-cls-17,
            .right-tree-cls-22 {
                fill: #f8dc4e;
            }
            .right-tree-cls-18,
            .right-tree-cls-21 {
                fill: #f6ce4f;
            }
            .right-tree-cls-19 {
                opacity: 0.6;
            }
            .right-tree-cls-19,
            .right-tree-cls-20,
            .right-tree-cls-21 {
                mix-blend-mode: multiply;
            }
            .right-tree-cls-22,
            .right-tree-cls-27 {
                mix-blend-mode: screen;
            }
            .right-tree-cls-23 {
                fill: #9e5524;
            }
            .right-tree-cls-24 {
                fill: #6d451c;
            }
            .right-tree-cls-25 {
                fill: #3f2912;
            }
            .right-tree-cls-26 {
                fill: #25180d;
            }
            .right-tree-cls-27 {
                fill: #a1732a;
            }
            .right-tree-cls-28 {
                fill: #eda920;
            }
            .right-tree-cls-29 {
                fill: #ec9922;
            }
            .right-tree-cls-30 {
                fill: #d48c29;
            }
            .right-tree-cls-31 {
                fill: #6e5a36;
            }
            .right-tree-cls-32 {
                fill: #4b3e23;
            }
        </style>
    </defs>
    <g class="right-tree-cls-1">
        <g id="Layer_1" data-name="Layer 1">
            <path
                class="right-tree-cls-2"
                d="M374.2,672.4h0v-.07h0v0c-.21-1.18-.51-2.47-.89-3.81h0l0-.16c0-.15-.08-.29-.13-.43a1,1,0,0,0,.91-.19v0a2.26,2.26,0,0,1,0,.26.71.71,0,0,0,0,.14,2.44,2.44,0,0,0,0,.27v.16c0,.09,0,.18,0,.28V669c0,.09,0,.18,0,.28s0,.12,0,.19,0,.18,0,.28,0,.14,0,.21,0,.18,0,.28v.07h0c0,.37,0,.76.07,1.15V609.83a24.76,24.76,0,0,1-2.86,1.08c-.55,0-.36,1.58-.36,1.58l-1.43-.41s-8.06,4.36-8.36,4.74a.86.86,0,0,0-.11.38c-1.45.28-7.54,2.68-7.54,2.68l-1.18,1.38-.73.23h0c-.9-.2-2.86-.61-3.06-.58s-4.35,1-4.35,1l-.05.17,0-.21-.9,2V624l-2.19.88v-.22s0-.09,0-.14a.11.11,0,0,0,0-.05h0a.8.8,0,0,0,0-.15c-.7-2.78-5-4.4-5-4.4a1.67,1.67,0,0,0-.2-2c-.85-.77-4.91-3.5-8.23-3.58.07-1.06-2.62-4.49-6.13-3.39-1.18-1.06-8.8-1.28-11.9-.11-11.11-.93-5.47,6.64-4.72,6.8-1.76.4-2.51,2.09-5.1,2.89s-9.17,3.65-8.83,7a3.66,3.66,0,0,0,1.7,3h0l.08,0,.15.08.09,0,.16.08.07,0a.52.52,0,0,0,.16.06l.05,0,.15.05h0l.14,0h0l.23,0c-.5.68,1.85,2,4,1.17.17-.07.39.14.62.15a4.82,4.82,0,0,0,.76,0c2,.56,5.15,1.36,7.95-.41a11.84,11.84,0,0,0,6.76-1.24,46.36,46.36,0,0,1,2.87,6.23l.93,3.65v.29h0l-.1,2c-1.32.93-2.75,2.23-2.86,3-1.3.71-7.54,5.34-1,3.78v.21l0,0c-.37-.21-.33.42-.27.81l-1.82,1a23.44,23.44,0,0,0-2.8-4.2h0l-.15-.16-.14-.16-.16-.16-.13-.13-.15-.15-.13-.12-.15-.14-.12-.11-.15-.12-.12-.1-.14-.11-.13-.09-.13-.1-.12-.08-.14-.09-.12-.08-.13-.08-.12-.07-.12-.07-.12-.06-.12-.06-.12-.06L306,645l0,0c0-.2,0-.4-.08-.63a2.63,2.63,0,0,0,1.59-2.51v-.09h0c0-.61-.41-1.55-2.1-2.26a1.92,1.92,0,0,0-.82-2,3.35,3.35,0,0,0-2.34-.32,2.47,2.47,0,0,1-1.7.2l-.13-.05-.08,0a.67.67,0,0,1-.12-.06l-.1-.06-.09-.07a1,1,0,0,1-.19-.17,4.09,4.09,0,0,0-.33-.28l-.11-.08-.24-.15-.06,0h0a1.85,1.85,0,0,0-1.74,0c-2.32,1.24-5.95,3.6-4.7,5.76,0,0-3.26.66-3.24,2.79a2.37,2.37,0,0,0,.61,1.57h0l0,0a3.44,3.44,0,0,0,.27.27l.08.07.29.23.05,0a3,3,0,0,0,.39.22l.07,0,.33.15.11,0,.38.13H292a3.15,3.15,0,0,0,.42.09h.11l.33,0h.35a3.68,3.68,0,0,0,4.44,2.29,4.82,4.82,0,0,0,3.71.94c3.26-.67,2.84-3.36,2.84-3.36,1.08,0,1.68-.46,1.75-1.74a5.37,5.37,0,0,1,1,.2l.25.19.19.18.3.28.19.18.3.32.18.19c.1.11.2.23.29.35s.11.13.17.2l.29.37a25.15,25.15,0,0,1,2.17,3.42c-2,1.12-4,2.31-4.06,2.42s-1.73,3-1.73,3-4,2.77-4.08,3a13.57,13.57,0,0,0,.44,2.17h0l.2,1.17-2,1.21-1,2.94,1.75,1.57.37.33s-.53,2.47-.15,2.84a.65.65,0,0,0,.19.1c1.08.6,6.55,3.6,7.56,3.64a27.87,27.87,0,0,0,3.06-1.33l1.49.77a31.83,31.83,0,0,0,3.29-1.4,5.76,5.76,0,0,0,1.15,3.33c.36,2,.71,4.15,1.05,6.59l1.88-.22,1.56-.18s-1.08-3.12-2.37-7a10.49,10.49,0,0,0,1-3.35l2.56-1.25c0,3.18.32,7.94,2.11,7.7h0A2.77,2.77,0,0,0,327,679c-1,3.52-1.61,7.12-1.61,7.12l-1.5,2.44h-.17l-.94.66-1.29.18-1,.92-.76.17-1,.77,4-.75h0l.46-.09,1.51-.28,4.95-.94,7.42-1.4,5.09-1h0l2.94-.56-.76-.26-.64.1-1.19-.44-1.26.29-1.26-.4-.58.21a4.53,4.53,0,0,1-.52-.42l-.18-.18-.05,0-.13-.14,0-.05-.12-.15,0,0-.25-.37,0,0-.08-.13,0-.05a.83.83,0,0,1-.07-.13v0c-.06-.11-.1-.21-.14-.3v0l0-.11v0a.16.16,0,0,1,0-.09v0c0-.07,0-.13,0-.18v-.1h0c0-.79,0-1.65-.14-2.54h0s0-.07,0-.1l0-.29c1.72.35,2.69-5.12,3.2-10v0c0-.32.07-.62.09-.93v-.07c0-.14,0-.27,0-.41v0c0-.3.06-.61.08-.9v-.11l.81-.24c.16.41.32.77.44.82.31.11,3.14.09,3.14.09s0,1.11.67,1.34a17.64,17.64,0,0,0,4-.34s.9,1,1.4,1a9.66,9.66,0,0,0,3.14-1.49l.14.54.93-.11-.29-.75-.34,0,.19-.19h0l.12-.21a1,1,0,0,0,.08-.14l.38-.7s1.2-.7,1.4-.85l.48.2.46.6.08.12c-.27,4.25-.24,8.1-.24,8.1l-1.39,3.31h-.23l-1.07.84-1.65.11L352.32,681l-.93.15-1.08,1,5-.58h0l.59-.06,1.93-.23,6.53-.75,9.86-1.14ZM316.85,674a1.18,1.18,0,0,0,.19-.25c.22,1,.44,2.15.66,3.36A7,7,0,0,1,316.85,674Zm1.75-36.79-.5.29-.64-1.3a42.29,42.29,0,0,0-2.22-4.64c-.05-.41-.12-.92-.21-1.52a11.15,11.15,0,0,0,1.2-.91s.43,3.76,2.42,4.6A33.85,33.85,0,0,1,318.6,637.22Zm1.67-3.17-.94,2c0-.7,0-1.4-.05-2.1A8.84,8.84,0,0,0,320.27,634.05Zm-.47,42.42-.74-2.21,1.56-.73A10.66,10.66,0,0,1,319.8,676.47Zm7.34,1.91a2.71,2.71,0,0,1-1.55,1.22c-1.42.18-1.88-3.86-1.89-7.57l.56-.28c0,4,2.1,4.17,3.31,3a8.84,8.84,0,0,1,.36,1.19C327.65,676.68,327.38,677.52,327.14,678.38Zm-2.64-6.75.19-.09s.73,1.4,1.12,1.56a2.39,2.39,0,0,0,.88,0,8.18,8.18,0,0,1,.81,1.45C326.43,675.67,324.45,675.55,324.5,671.63Zm3.68-39.37c-.14.28-1.27,3.92-1.27,3.92s-3.76,3.76-3.81,4a4.2,4.2,0,0,0,.26.92,11.45,11.45,0,0,0-2.7.27h0l-.09,0c-.28.06-.57.13-.87.22a3.78,3.78,0,0,0-.64.28c.18-1.67.32-3.13.38-3.71l0-.23v0h0c.36-1.24,1-3,1.32-3.87,2.5.11,5.94-.49,7.64-2.62,0,0,.25,0,.65,0A8.81,8.81,0,0,0,328.18,632.26Zm8.77,35-.52.5a1.56,1.56,0,0,0-.09-.81S336.6,667.1,337,667.26Zm-.57,2,1.23-.78.83-.13c-.36,4.26-2.61,3.83-2.7,2.09C335.92,670.06,336.13,669.67,336.38,669.25Zm4.05-.64v.11c0,.15,0,.3,0,.46h0c0,.16,0,.32,0,.48l0,.13c0,.15,0,.3-.05.45-.51,4.67-1.45,10.13-2.95,9.65-.2-1.61-.51-3.29-.82-4.77h0l0-.08-.06-.27c0-.07,0-.14,0-.2l-.06-.28-.05-.19-.06-.27,0-.18-.06-.27s0-.1,0-.15L336,673a1,1,0,0,0,0-.14l-.06-.25,0-.13-.06-.23,0-.13-.06-.22,0-.1q0-.12-.06-.21l0-.09c0-.07,0-.14-.05-.21l0,0c0-.08,0-.14-.05-.21v0h0l.12-.27c.3,1.71,2.63,1.95,3-2.4l.55-.09,1.35-.39C340.48,668.08,340.46,668.34,340.43,668.61Zm.17-1.93v.08l0,.43-1.37.35-.32-.16c.53-.21,1.27-.55,1.74-.8Zm.22.44c0-.19,0-.38,0-.56v-.12l.18-.12c.05-.07.17.25.33.65Zm14.27-8.93-1.08-.28.93-.89V657a.86.86,0,0,0,.22.15,3,3,0,0,0,1.16,0l.14.18C356.15,657.48,355.5,657.89,355.09,658.19Zm17.35,4.16a1.87,1.87,0,0,0,.11.81l-.51-.38A5,5,0,0,0,372.44,662.35Zm-.53,1.8,1,.46c.29.35.54.69.76,1,.17.93-.24,1.6-.84,1.4C372.55,666.06,372.24,665.1,371.91,664.15Zm1,3.05c.59.15,1-.46.94-1.34l.15.24h0v1a.85.85,0,0,1-1,.35Z"
            />
            <polygon class="right-tree-cls-2" points="374.2 682.86 374.2 681.31 373.74 681.23 372.85 681.88 371.8 681.85 370.97 682.52 370.45 682.56 369.9 682.97 372.33 682.9 372.33 682.9 374.2 682.86" />
            <path class="right-tree-cls-2" d="M353.29,654.89a2.14,2.14,0,0,1,.15.23l-.31-.07.06-.1Z" />
            <path class="right-tree-cls-2" d="M309.08,610.41c.58.19.13-1.22.13-1.22-.42.54-.59,1.19-.26,1.14Z" />
            <path class="right-tree-cls-2" d="M303,617.3c.55.4,1.07.45.9,0v-.2C303.79,616.34,303,617.3,303,617.3Z" />
            <path class="right-tree-cls-2" d="M298,632.61l-.13-.15c-.6-.44-.47,1.29-.47,1.29C298,633.32,298.33,632.68,298,632.61Z" />
            <path class="right-tree-cls-2" d="M299.27,632.72l-.16,0c-.61.26.39,1.44.39,1.44C299.65,633.25,299.54,632.39,299.27,632.72Z" />
            <path class="right-tree-cls-2" d="M327.78,613.44l0,.22c.29.84,1-.52,1-.52C328.1,612.92,327.5,613.06,327.78,613.44Z" />
            <path class="right-tree-cls-2" d="M314.85,645.42l.07-.11c.18-.5-.63-.47-.63-.47C314.51,645.39,314.83,645.75,314.85,645.42Z" />
            <path class="right-tree-cls-2" d="M315.13,644.72l.1-.06c.33-.31-.44-.78-.44-.78C314.82,644.49,315,645,315.13,644.72Z" />
            <path class="right-tree-cls-2" d="M320.51,640.93l.1,0c.38-.2-.32-.88-.32-.88C320.23,640.62,320.34,641.16,320.51,640.93Z" />
            <path class="right-tree-cls-2" d="M306.12,638.33c-.43.14-.72.47-.49.59l.07.12C306,639.44,306.12,638.33,306.12,638.33Z" />
            <path class="right-tree-cls-2" d="M306.5,644.39l-.08.1c-.24.44.59.58.59.58C306.84,644.49,306.55,644.08,306.5,644.39Z" />
            <path class="right-tree-cls-2" d="M307.52,644.25c-.28-.53-.65-.8-.63-.42l-.06.14C306.7,644.59,307.52,644.25,307.52,644.25Z" />
            <path class="right-tree-cls-2" d="M297.82,650.4l-.12-.06c-.48-.11,0,1,0,1C298,650.86,298.08,650.33,297.82,650.4Z" />
            <path class="right-tree-cls-2" d="M297.28,650.48c-.23-.36-.35.45-.35.45.33,0,.57-.21.4-.35Z" />
            <path class="right-tree-cls-2" d="M293.17,648.11c-.28-.43-.45.58-.45.58.41-.05.72-.3.51-.46Z" />
            <path class="right-tree-cls-2" d="M292,641.82l0-.13c0-.55-.65-.11-.65-.11C291.75,642,292.11,642.13,292,641.82Z" />
            <path class="right-tree-cls-2" d="M292,641c.3-.34-.45-.7-.45-.7.07.58.27,1,.37.76Z" />
            <path class="right-tree-cls-2" d="M327.44,612.66c.61.44.29-1.09.29-1.09-.52.32-.79.85-.42.95Z" />
            <path class="right-tree-cls-2" d="M302.56,616.16c.43.48.87.64.77.23l0-.18C303.35,615.47,302.56,616.16,302.56,616.16Z" />
            <polygon
                class="right-tree-cls-3"
                points="301.34 260.94 291.21 272.35 284.24 271.35 287.43 275.56 277.24 283.64 273.13 282.61 275.19 285.5 272.1 292.23 262.51 292.63 260.61 299.16 249.01 302.06 241.41 295.89 225.29 297.8 221.96 292.72 221.07 298.57 200.43 300.74 186.78 296.25 179.08 279.08 172.43 271.8 218.36 255.09 222.35 251.14 228.37 251.33 232.68 246.72 243.34 245.16 251.55 237.12 275.01 234.66 276.89 242.14 289.58 237.02 305.78 246.8 299.01 254.26 301.34 260.94"
            />
            <polygon class="right-tree-cls-3" points="374.2 253.77 361.55 260.27 364.88 269.01 374.2 272.85 374.2 253.77" />
            <path class="right-tree-cls-4" d="M307.11,285.92l4.05-.25s-23.65-18.11-31.41-49.33l-1.16.37S283.73,266.92,307.11,285.92Z" />
            <path class="right-tree-cls-4" d="M287.92,275.55,286.39,273s-27.08,2.59-52.67-13.05l-.5.94S254.73,276.1,287.92,275.55Z" />
            <path class="right-tree-cls-4" d="M260.22,271.47,268,274s-32.61-5.9-60.6,11.7l-.43-1S233.58,268.4,260.22,271.47Z" />
            <path class="right-tree-cls-4" d="M374.2,311.35c-1.75,1.3-3.48,2.6-5.17,3.91,0,0-10.74-1.35-30,4.69l.41,7.62c8.5-5.48,21.46-8.93,29.52-8.71,0,0,1.87-1.54,5.27-4.14Z" />
            <path class="right-tree-cls-4" d="M249.77,252.17S278.38,265,302,282.51c0,0,11.09-2.13,32,3L334,294c-9.68-5.62-23.6-8.52-32-7.79,0,0-25.43-19.26-54.05-33Z" />
            <polygon
                class="right-tree-cls-3"
                points="374.2 96.39 368.09 91.15 287.67 79.16 166.05 163 156.31 168.45 179.53 179.16 187.25 171.74 189.04 181.29 217.87 187.87 226.36 183.14 230.87 192.15 259.5 191.38 266.7 180.88 280.35 176.9 290.46 162.88 291.56 153.14 294.39 159.32 318.32 167.48 326.65 159.36 338.6 174.34 362.17 174.77 374.2 164.61 374.2 96.39"
            />
            <path class="right-tree-cls-5" d="M300.79,135.67l1.46,3.73s-32.7-13.53-74.6-7.25l-.06-1.2S267.1,122.75,300.79,135.67Z" />
            <path class="right-tree-cls-5" d="M320.81,155.11l-.88,3.9s-19.9-28-58.76-44l.64-1S299.73,127.09,320.81,155.11Z" />
            <path class="right-tree-cls-5" d="M339.55,158.51l-3.4,1.54s12.75-26.17,7.67-57l1.09-.18S351.76,131.68,339.55,158.51Z" />
            <path class="right-tree-cls-5" d="M374.2,113.22a451.52,451.52,0,0,1-39.58,48.55c-.89,8.18-3.31,21.52-10.2,30.26l2.26,11.9c8.77-20.32,11.36-41.87,11.36-41.87,15.51-16.33,29.6-36.08,36.16-45.68Z" />
            <path class="right-tree-cls-6" d="M311.26,709.15,324.5,518.23,330.83,346l3.19-23.8c-10.65-81.56-22-215.93-22-215.93l10.73-.74c-3.89,45.39,18.14,216.37,18.14,216.37L340,344.82S341.56,468.06,337.9,484s1.86,181.85,4,223.82Z" />
            <path class="right-tree-cls-5" d="M329.11,218.11c-2.19,2.64-4.05,7-5.43,12.68-6.55-64.28-11.63-124.51-11.63-124.51l10.73-.74C321,126.28,324.64,173.22,329.11,218.11Z" />
            <path
                class="right-tree-cls-4"
                d="M334,322.21c-.58-4.49-1.17-9.14-1.76-13.91,1.89,2.34,3.91,3.59,6,3.5a4.91,4.91,0,0,0,1.4-.28c.81,6.58,1.3,10.39,1.3,10.39L340,344.82s0,.26,0,.73c-.67-1.61-1.29-2.47-1.87-2.51-2.36-.14-5,5.47-7.79,15.71l.47-12.74Z"
            />
            <polygon
                class="right-tree-cls-7"
                points="374.2 155.93 374.2 34.06 355.71 27.24 348.21 31.21 344.01 23.39 309.22 18.36 282.72 26.8 280.32 37.42 272.42 30.79 245.53 30.51 216.16 51.79 221.06 72.44 214.17 67.14 182.33 76.17 178.03 88.89 168 87.87 150 114.14 151.06 120.64 140.1 135.45 156.31 168.45 172.44 168.48 176.41 171.21 218.1 159.26 226.73 135.14 234.59 139.16 276.13 123.51 281.13 110.99 290.12 124.16 319.39 117.79 328.3 110.86 326.16 122.95 330.56 132.86 366.1 138.69 371.03 133.19 370.95 153.7 374.2 155.93"
            />
            <polygon
                class="right-tree-cls-8"
                points="374.2 155.93 374.2 93.86 366.36 86.66 363.42 66.39 360.13 79.76 343.42 80.39 331.29 72.12 324.09 55.47 320.17 72.18 292.29 70.63 283.88 65.91 256.47 93.65 250.04 77.2 251.24 88.42 222.02 112.97 200.88 103.38 211.7 114.01 190.06 129.35 180.66 132.89 160.91 123.03 174.33 133.95 153.78 143 145.01 140.18 143.99 143.38 156.31 168.45 172.44 168.48 176.41 171.21 218.1 159.26 226.73 135.14 234.59 139.16 276.13 123.51 281.13 110.99 290.12 124.16 319.39 117.79 328.3 110.86 326.16 122.95 330.56 132.86 366.1 138.69 371.03 133.19 370.95 153.7 374.2 155.93"
            />
            <polygon class="right-tree-cls-9" points="374.2 691.88 364.28 684.27 349.16 686.81 337.8 698.57 341.92 707.81 350.56 692.2 363.73 688.64 374.2 693.42 374.2 691.88" />
            <path class="right-tree-cls-9" d="M312,672.08l10.76,17-1.93,16.81c0-1.09-12.91-30.7-12.91-30.7l-25.16-21.07Z" />
            <polygon class="right-tree-cls-9" points="287.14 674.14 305.85 680.1 320.51 690.95 311.26 708.94 302.53 686.06 286.85 678.99 273.48 688.79 287.14 674.14" />
            <polygon
                class="right-tree-cls-9"
                points="345.15 708.19 306.31 709.89 297.36 698.89 290.12 697.27 301.33 696.05 309.98 700.52 318.42 694.7 327.65 678.18 345.53 666 336.95 679.95 334.69 692.17 343.21 688.16 341.53 696.23 346.31 699.9 355.38 696.83 367.84 700.65 353.6 702.88 345.15 708.19"
            />
            <polygon class="right-tree-cls-7" points="374.2 234.35 373.65 234.56 370.35 251.3 361.1 253.92 361.55 260.27 374.2 262.63 374.2 234.35" />
            <polygon class="right-tree-cls-8" points="374.2 252.65 372.52 254.98 361.38 257.84 361.55 260.27 374.2 262.63 374.2 252.65" />
            <polygon
                class="right-tree-cls-7"
                points="162.53 273.93 165.18 259.03 172.06 258.25 166.78 254.6 171.38 243.25 175.68 243.26 172.16 240.71 171.11 232.7 179.56 229.72 177.56 222.22 186.39 216.05 196.79 220.62 202.06 209.86 224.3 205.19 229.13 214.25 228.72 205.86 242.36 205.31 256.01 209.98 262.82 221.99 268.25 215.64 303.16 223.09 310.53 234.98 306.19 246.68 294.6 247.91 295.85 258.4 269.26 267.56 252.75 266 242.35 255.84 244.01 262.67 234.06 264.77 232.8 270.85 224.04 275.36 221.21 286.14 201.39 295.01 195.41 287.51 186.85 296.37 166.6 290.23 168.46 280.46 162.53 273.93"
            />
            <polygon
                class="right-tree-cls-8"
                points="183.5 287.95 185.63 276.11 194.98 279.27 206.58 261.61 202.76 251.14 207.54 242.88 205.11 237.16 212.25 230.29 206.94 225.45 221.5 228.57 235.77 221.62 237.02 222.72 242.96 216.52 239.61 226.16 258.67 237.87 270.39 233.83 274.3 244.09 285.13 245.71 289.31 239.05 297.5 242.66 302.74 236.29 302.17 232.1 305.2 235.02 309.45 233.24 310.53 234.98 306.19 246.68 294.6 247.91 295.85 258.4 269.26 267.56 252.75 266 242.35 255.84 244.01 262.67 234.06 264.77 232.8 270.85 224.04 275.36 221.21 286.14 201.39 295.01 195.41 287.51 186.85 296.37 170.37 291.37 183.5 287.95"
            />
            <polygon class="right-tree-cls-8" points="282.72 26.8 282.69 41.24 295.22 59.23 279.96 44.63 272.42 30.79 279.51 34.66 282.72 26.8" />
            <polygon class="right-tree-cls-7" points="365.03 250.63 361.95 244.13 368.64 246.6 369.04 250.84 365.03 250.63" />
            <polygon class="right-tree-cls-7" points="209.55 59.56 202.41 49.3 215.4 52.62 215.9 58.71 209.55 59.56" />
            <polygon class="right-tree-cls-7" points="211.34 66.56 204.21 63.4 209.28 61 215.79 60.53 216.38 65.05 211.34 66.56" />
            <polygon class="right-tree-cls-7" points="271.72 28.88 274.05 20.18 281.55 27.26 278.17 32.22 271.72 28.88" />
            <polygon class="right-tree-cls-7" points="264.75 29.47 259.01 24.36 266.09 22.52 270.96 25.04 270.04 29.51 264.75 29.47" />
            <polygon class="right-tree-cls-3" points="275 185.05 271.57 193.42 265.05 185.52 269.04 180.98 275 185.05" />
            <polygon class="right-tree-cls-3" points="279.18 184.93 272.71 180.67 279.43 177.88 289.7 182.34 279.18 184.93" />
            <polygon class="right-tree-cls-3" points="270.95 298.11 268.63 303.77 264.23 298.43 266.92 295.36 270.95 298.11" />
            <polygon class="right-tree-cls-3" points="273.38 297.69 269.01 294.81 273.55 292.92 280.49 295.94 273.38 297.69" />
            <polygon class="right-tree-cls-7" points="193.2 210.19 196.25 204.42 199.91 210.77 196.84 213.7 193.2 210.19" />
            <polygon class="right-tree-cls-7" points="259.75 212.73 262.81 206.96 266.46 213.31 263.39 216.24 259.75 212.73" />
            <polygon class="right-tree-cls-7" points="163.95 284.8 157.29 283.36 162.99 278.5 166.72 280.63 163.95 284.8" />
            <polygon class="right-tree-cls-7" points="204.59 251.56 209.04 246.63 210.95 253.65 207.2 255.8 204.59 251.56" />
            <polygon class="right-tree-cls-8" points="266.69 232.12 271.14 227.19 273.04 234.21 269.3 236.36 266.69 232.12" />
            <polygon class="right-tree-cls-7" points="190.74 210.32 194.69 214.01 189.94 215.42 183.46 211.24 190.74 210.32" />
            <polygon class="right-tree-cls-8" points="274.05 63.91 277.76 56.9 282.21 64.61 278.47 68.17 274.05 63.91" />
            <polygon class="right-tree-cls-8" points="271.06 64.07 275.87 68.55 270.08 70.27 262.2 65.18 271.06 64.07" />
            <polygon class="right-tree-cls-7" points="341.41 87.67 334.11 91.38 335.19 82.64 340.42 81.77 341.41 87.67" />
            <polygon class="right-tree-cls-7" points="356.41 20.54 361 14.76 363.43 23.25 359.48 25.72 356.41 20.54" />
            <polygon class="right-tree-cls-7" points="343.95 89.18 342.77 82.88 348.53 84.64 351.84 93.11 343.95 89.18" />
            <polygon class="right-tree-cls-3" points="303.81 257.82 300.88 256.02 302.2 253.3 309.82 253.81 303.81 257.82" />
            <polygon class="right-tree-cls-6" points="231.69 701.03 223.95 705.97 213 705.4 204.71 712.62 198.44 712.91 190.53 718.71 229.04 718.71 252.84 704.38 231.69 701.03" />
            <polygon class="right-tree-cls-10" points="374.2 701.97 356.3 705.63 374.2 711.31 374.2 701.97" />
            <path
                class="right-tree-cls-9"
                d="M374.2,414.9l-1.57-1s-181.66,4.43-183.2,5-75.77,56.8-76.92,57.83-65.32,39.86-65.32,39.86,50,40.77,58.44,42.44c2.37.46,23-9,23-9l11.93,9s18.87-5.69,25.87-9.73c3.1-1.79,4.6-7.2,4.6-7.2s3.9,12.81,7.38,13.31,53.91-22.83,53.91-22.83,7,14.85,10.48,16.88,19.68-.09,19.68-.09L317.16,528s17.53-13.55,18.94-18a18.27,18.27,0,0,0-.66-11.81s11.29,8.79,19.18,8.48c3.07-.12,12.9-3.87,19.58-6.87Z"
            />
            <polygon class="right-tree-cls-6" points="191.77 514.49 161.83 511.45 162.17 512.58 194.31 516.45 215.91 514.37 212.96 511.6 191.77 514.49" />
            <path class="right-tree-cls-9" d="M228.65,522.13l2.06.06c-2.31,68.83,36.8,52,32.41,24.72l2.05-.28C269.59,576.49,226.23,594.69,228.65,522.13Z" />
            <path class="right-tree-cls-9" d="M357.88,506.53l-1.57.05c1.75,59.13-27.9,44.66-24.58,21.24l-1.55-.24C326.83,553.24,359.71,568.87,357.88,506.53Z" />
            <polygon class="right-tree-cls-6" points="374.2 505.53 363.11 507.46 355.3 502.47 353.85 494.67 335.91 523.06 348.35 515.57 363.11 514.64 374.2 512.33 374.2 505.53" />
            <path class="right-tree-cls-6" d="M374.2,473.78C356,487.88,328.53,511.33,317,532.19l9.26,21.12c.93-12.53,12.82-46.49,48-75.13Z" />
            <path class="right-tree-cls-6" d="M154.44,454.39s27.95,15.11,48.78,48.81c0,0,40.69,14.56,62.68,40.77l-.58,49.3c-3.47-21.22-11.76-61.16-65.57-84.25,0,0-11.38-28.08-46.68-52.42Z" />
            <path
                class="right-tree-cls-11"
                d="M244,616.78c4.83,0,16.19-5.84,19.28-23.49l-2.28-.46c-2.68,15.32-12.48,21.56-17.07,21.45-15.08-.27-20.53-62.88-20.45-102.8a1.07,1.07,0,0,0-.62-1h0a1,1,0,0,0-1,.12,1.22,1.22,0,0,0-.47,1c.07,13.79,1.33,104.82,22.54,105.2Z"
            />
            <path
                class="right-tree-cls-10"
                d="M227.71,718.71H374.2V701.09c-15.78-15-18.61-31.06-18.61-31.06-2.32-51.8-27.78-136.67-27.78-136.67s-1.73-24.34-2.89-36.2,17.36-56.79,17.36-56.79L265.46,446l-.52,35.61L263.2,493l-6-17.68L237,445.68l-9.48,2.76c37,60.53,30.89,99.27,30.89,99.27l5.21,30C252,616.36,245.07,679.39,245.07,679.39Z"
            />
            <path
                class="right-tree-cls-12"
                d="M237,445.68l20.25,29.64,6,17.68,1.74-11.44.52-35.61,76.82-5.58s-18.52,44.93-17.36,56.79,2.89,36.2,2.89,36.2S353.27,618.23,355.59,670c0,0,2.24,12.83,14,26.28-8.43-2.16-16.6-3.88-24.27-5.16a241,241,0,0,0,3.46-41.07c0-72-30.57-130.43-68.27-130.43-8,0-15.61,2.61-22.71,7.4-2.26-17.24-9.41-44.45-30.31-78.61Z"
            />
            <path
                class="right-tree-cls-6"
                d="M333.85,650.81c-19.17-20.54-17.12-108-16.74-120.14a1.28,1.28,0,0,1,.37-.87,1.09,1.09,0,0,1,.83-.33h0a1.18,1.18,0,0,1,1.08,1.25c-.32,11.33-2.21,98.74,16.06,118.33,6.73,7.2,12.18,1.39,16.58-11.55q.42,2.73.81,5.41C347.91,654.75,341.67,659.2,333.85,650.81Z"
            />
            <polygon class="right-tree-cls-6" points="219.18 463.15 234.37 476.26 241.74 482.96 247.82 484.99 254.33 507.15 247.24 495.44 244.06 489.2 238.42 485.46 233.06 477.04 217.88 463.62 219.18 463.15" />
            <path
                class="right-tree-cls-6"
                d="M263.59,577.67l-5.21-30s6.15-38.74-30.89-99.27l9.48-2.76,20.25,29.64,6,17.68,1.74-11.44.52-35.61,76.82-5.58s-18.52,44.93-17.36,56.79,2.89,36.2,2.89,36.2,6.63,22.11,13.44,50.64l-11.12-11.74-11.58,2.08-18.13,15-22.37,27-14.66,14.15-12.34,52.42-10.39,35.78H223.8l21.27-39.32S252,616.36,263.59,577.67Z"
            />
            <polygon class="right-tree-cls-9" points="320.62 436.44 304.81 473.05 299.79 488.03 291.69 488.03 286.68 478.46 283.59 437.27 320.62 436.44" />
            <path class="right-tree-cls-6" d="M163.1,496.85,132,477.08l.67-1.34,29.52,17.89s23.91.1,32.59,1.45l4.26,8.36S186.44,499,163.1,496.85Z" />
            <path class="right-tree-cls-6" d="M374.2,484.06c-2.56-.11-4.9-.16-6.66-.12l-9.68,6.89s7.8-1.27,16.34-2.19Z" />
            <path class="right-tree-cls-6" d="M354.43,471.16l9.83-24.55,1.16.31-8.49,23.2s-.9,15.31-2.12,21.43l-7.61,6.86S354.43,478.65,354.43,471.16Z" />
            <path class="right-tree-cls-6" d="M210.35,459.93c3.47,14.56,14.76,32.08,14.76,32.08l1.64,13.89L236,521.08l-10.61-6.44-1.74-10.4V493.42c-7.09-10.92-14.46-33.91-14.46-33.91Z" />
            <path class="right-tree-cls-13" d="M199.46,435.21l-2.09.15c2.41,34.33,9.31,147.48-12.87,149.39s-20.81-109.61-19.08-123.33l-2.08-.19c-1.71,15-3.46,127.54,21.33,125.72S202,471.41,199.46,435.21Z" />
            <path
                class="right-tree-cls-7"
                d="M374.2,293.81c-13.27-1.74-42.34-7-42.34-7s-12.73-7.49-15.62-9.36S262.43,290,262.43,290l-11,10.61s-20.83-7.49-22.57-7.49-29.51,3.74-29.51,3.74l-5.21,12.48-30.08,8.74s-17.94-.62-19.68-1.87-57.86,37.44-59,39.32S73.8,381.71,73.8,381.71,46,404.8,45.45,406.67s6.37,30,6.37,30l-14.47,10L31.56,472.2l15.63,18.72s-2.9,21.84,0,25.59S86,533.36,88.27,533.36,100.42,509,100.42,509l19.09-5L123,492.79s37-12.48,39.93-13.73,6.94-15,6.94-15,17.36,1.25,19.67,1.25,5.79-6.86,5.79-6.86l3.47,6.86s20.77,5.22,25.4,5.22,9.32-15.2,9.32-15.2L249.7,471s36.45-1.25,38.19-1.87,19.09-18.72,22-18.1,24.3,16.85,24.3,16.85,30.08-11.86,33.56-10.61a44.46,44.46,0,0,0,6.46,1.27Z"
            />
            <path
                class="right-tree-cls-8"
                d="M374.2,396.13l-7.33-.38-11.71,11.06-16-13.75,2.91-8.44-4.14-8.22-16.23-1.08-10.48,8.24s-48.31,22.5-51.44,21.13S243,398,243,398s-45.75-.65-49.1.54a66.32,66.32,0,0,1-6.4-6.81l-6.22,4.48s-6.84,19.83-11.87,30.07l-.24.64-15.56,7.84s-37.42-7.18-38.23-5.4-31.15,20.71-31.15,20.71S71,472.7,69.59,474.39c-.59.73-12.09,6.75-25.12,13.27l2.72,3.26s-2.9,21.84,0,25.59S86,533.36,88.27,533.36,100.42,509,100.42,509l19.09-5L123,492.79s37-12.48,39.93-13.73,6.94-15,6.94-15,17.36,1.25,19.67,1.25,5.79-6.86,5.79-6.86l3.47,6.86s20.77,5.22,25.4,5.22,9.32-15.2,9.32-15.2L249.7,471s36.45-1.25,38.19-1.87,19.09-18.72,22-18.1,24.3,16.85,24.3,16.85,30.08-11.86,33.56-10.61a44.46,44.46,0,0,0,6.46,1.27Z"
            />
            <path
                class="right-tree-cls-7"
                d="M374.2,554.65c-3.15,47.16-10.14,93.85-25.38,78.72-18.93-18.82-20.11-106.24-20.18-117.58a1.17,1.17,0,0,0-1.13-1.21h0a1.1,1.1,0,0,0-.82.37,1.27,1.27,0,0,0-.34.88c.05,12.09,1.07,99.63,20.93,119.38,14.62,14.53,22.63-12.34,26.95-49Z"
            />
            <path class="right-tree-cls-11" d="M328.42,562.87c-1.87-22.11-2.08-41.76-2.1-47a1.27,1.27,0,0,1,.34-.88,1.1,1.1,0,0,1,.82-.37h0a1.17,1.17,0,0,1,1.13,1.21c0,4.84.26,23.54,2,44.85C329.88,561.37,329.14,562.12,328.42,562.87Z" />
            <polygon class="right-tree-cls-7" points="369.87 401.16 363.48 406.45 365.56 417.42 373.43 411.15 372.9 403.63 369.87 401.16" />
            <polygon class="right-tree-cls-7" points="254.6 292.32 249.81 285.33 239.61 287.37 245.27 295.98 252.25 295.54 254.6 292.32" />
            <polygon class="right-tree-cls-7" points="74.31 374.24 68.29 368.46 58.7 372.72 65.89 379.89 72.2 380.27 74.31 374.24" />
            <polygon class="right-tree-cls-7" points="77.69 366.16 76.88 359.91 69.48 357.48 70.33 365.11 74.91 370.7 77.69 366.16" />
            <polygon class="right-tree-cls-7" points="40.56 485.61 34.66 485.02 31.61 495.73 38.79 496.66 44.48 491.24 40.56 485.61" />
            <polygon class="right-tree-cls-7" points="54.96 487.31 51.88 492.78 57.29 504.73 64.31 492.3 61.38 485.99 54.96 487.31" />
            <polygon class="right-tree-cls-7" points="207.63 404.13 206.91 410.48 216.39 418.98 218.06 404.52 212.98 400.08 207.63 404.13" />
            <polygon class="right-tree-cls-7" points="332.76 382.6 326.85 383.1 321.02 394.82 334.48 393.69 337.5 387.44 332.76 382.6" />
            <polygon class="right-tree-cls-9" points="125.17 556.49 124.84 560.78 130.84 565.83 132.09 557.72 128.67 553.62 125.17 556.49" />
            <polygon class="right-tree-cls-8" points="123.37 503.13 126.45 506.93 137.19 502.82 132.06 494.8 124.95 496.17 123.37 503.13" />
            <polygon class="right-tree-cls-9" points="117.06 558.67 112.96 561.15 112.36 570.8 120.5 566.76 121.96 560.46 117.06 558.67" />
            <polygon class="right-tree-cls-8" points="102.62 511.26 100.49 519.56 108.37 527.29 113.07 519.17 110.47 509.51 102.62 511.26" />
            <polygon class="right-tree-cls-7" points="260.05 286.19 265.17 280.33 261.73 270.62 255.39 277.62 256.94 284.41 260.05 286.19" />
            <path class="right-tree-cls-8" d="M248.55,299.55l16,16.84,12.77,12.29-12,26.4,13.89-21.22L297,327.2l23.92,7.91L295.8,323.88l-13.89,1.24L268,312.64l11.19-12.9s-10.8,4.58-12,5-13.5-6.24-13.5-6.24Z" />
            <polygon class="right-tree-cls-7" points="183.88 386.41 194.87 401.7 201.53 416.99 200.66 437.27 204.42 416.68 200.08 402.32 207.31 390.78 183.88 386.41" />
            <polygon class="right-tree-cls-7" points="303.65 419.17 287.45 426.97 259.96 417.61 258.23 406.69 241.45 396.08 267.2 399.51 263.15 404.19 263.73 414.18 287.45 425.1 303.65 419.17" />
            <polygon class="right-tree-cls-6" points="240.66 718.71 257.65 691.27 266.33 670.67 281.95 642.9 264.3 664.43 256.2 669.74 252.44 666.62 240.66 718.71" />
            <polygon class="right-tree-cls-8" points="374.2 395.88 369.61 399.41 374.2 405.22 374.2 395.88" />
            <polygon class="right-tree-cls-6" points="353.12 718.71 284.27 718.71 299.6 715.28 316.09 711.85 324.77 705.29 330.6 707.32 334.03 714.03 353.12 718.71" />
            <path class="right-tree-cls-12" d="M287.06,696.89l15.05-12.48s6.55-20,6.55-21.22-.38-46.19-.38-46.19l-5,40.78L289,679Z" />
            <polygon class="right-tree-cls-8" points="51.28 437.38 72.84 418.15 84.16 422.08 97.66 398.17 83.65 418.28 71.98 411.44 49.36 426.42 51.28 437.38" />
            <polygon class="right-tree-cls-8" points="199.21 296.54 195.16 314.64 179.25 331.49 183.01 341.47 176.65 331.49 151.48 337.73 143.37 332.74 151.76 335.86 175.2 329.93 191.98 314.33 191.69 309.65 199.21 296.54" />
            <polygon class="right-tree-cls-8" points="153.65 434.75 128.91 423.85 126.02 412.31 133.25 394.21 124.28 410.43 125.44 423.85 117.92 433.53 153.65 434.75" />
            <polygon class="right-tree-cls-7" points="374.2 179.69 368.82 180.6 363.73 196.43 374.2 205.86 374.2 179.69" />
            <polygon class="right-tree-cls-7" points="374.2 211.51 369.17 215.79 374.2 216.02 374.2 211.51" />
            <polygon class="right-tree-cls-10" points="374.2 696.55 365.08 694.75 347.67 703.81 330.42 702.95 313.5 712.52 304.61 712.85 293.54 718.71 341.97 718.71 374.2 708.75 374.2 696.55" />
            <path
                class="right-tree-cls-9"
                d="M374.2,314.84c-20.73,13.41-220.43,143-215.49,155.94,5.21,13.65,51.39,29.83,58.77,28.5s21.59-17.69,21.59-17.69c2.63,2.06,52.08.72,56.9-1.66,8.95-4.42,10.54-20.45,10.54-20.45s39.35-4.1,43.57-6.13,13.3-32,14.87-29.93c.56.73,4.32,2.59,9.25,4.72Z"
            />
            <polygon class="right-tree-cls-6" points="320.47 431.57 308.88 429.63 294.39 418.3 291.76 417.48 307.82 431.85 318.62 434.33 323.63 438.2 331.53 436.54 320.47 431.57" />
            <polygon class="right-tree-cls-6" points="278.06 440.69 255.02 406.41 254.35 407.53 276.74 442.62 293.86 450.64 297.55 449.53 278.06 440.69" />
            <polygon class="right-tree-cls-6" points="374.2 435.57 354.58 432.26 311.9 438.48 280.69 457.96 223.4 442.62 223.4 444.7 281.48 459.62 311.9 443.04 354.18 440.55 374.2 444.61 374.2 435.57" />
            <path class="right-tree-cls-6" d="M374.2,393.62c-14-10.59-24.1-17.3-24.1-17.3l-2.56,4.81a231.2,231.2,0,0,1,26.66,18.32Z" />
            <path class="right-tree-cls-10" d="M374.2,695c-9.42,8.82-22.28,17.39-39.77,23.76H374.2Z" />
            <path class="right-tree-cls-6" d="M374.2,407c-12,.49-27.85,1.91-27.85,1.91l-40.92-6.53-.27,1.72,43.49,8.12c5.72-.81,16-.1,25.55.91Z" />
            <path
                class="right-tree-cls-7"
                d="M374.2,154.18c-4.67.6-8,.92-9,.75-4.74-.83-4.74,11.61-4.74,11.61l-11.85-5.81s-75.86,19.9-79,22.39-4.74,25.7-4.74,25.7l-36.35,5s-30.82,34.83-32.4,40.63,6.32,19.07,6.32,19.07-22.13,5-23.71,7.46-5.53,23.22-5.53,23.22l13.43,12.43S145.56,329,144.77,331.53,126.6,375.47,126.6,378s9.48,11.61,11.06,14.93-19,7.46-19.75,13.26,11.85,42.29,14.22,43.95,21.34,10.77,21.34,10.77l7.9,14.93s41.09-3.87,43.46-8.29c1.46-2.73.79-24.88.79-24.88s16.59,9.12,19,9.12S256.19,431,256.19,431l2-19.9s3.55,9.95,5.93,11.6,30.81,6.64,34,5,12.64-13.27,12.64-13.27,15,3.32,20.54,0,22.13-39,22.13-39,12-1.22,20.81-2.52Z"
            />
            <path
                class="right-tree-cls-8"
                d="M374.2,290.14l-15,.76-5.79,36.48-26.34,8.29,4.21,28.19-10.53,22.66-26.87.44,3.69,6.75-15.8,7.74-36.4-14.29s-42,44.72-44.87,44.68-38.72,16.59-38.72,16.59-39.68-26.7-40.38-26.46c3.72,12.29,9.26,27.07,10.75,28.12,2.37,1.65,21.34,10.77,21.34,10.77l7.9,14.93s41.09-3.87,43.46-8.29c1.46-2.73.79-24.88.79-24.88s16.59,9.12,19,9.12S256.19,431,256.19,431l2-19.9s3.55,9.95,5.93,11.6,30.81,6.64,34,5,12.64-13.27,12.64-13.27,15,3.32,20.54,0,22.13-39,22.13-39,12-1.22,20.81-2.52Z"
            />
            <path class="right-tree-cls-7" d="M374.2,506.3c-3.79-51.32-3.94-104.69-3.77-115.07,0-2.63-3.08-4-3.12-1.8-.42,28.13-.13,101.41,6.89,156.49Z" />
            <path class="right-tree-cls-11" d="M372.47,478.32c-2.11-41.36-2.18-78.6-2-87.09,0-2.63-3.08-4-3.12-1.8-.26,17.32-.25,51.77,1.44,88.55C370,478.07,371.22,478.17,372.47,478.32Z" />
            <polygon class="right-tree-cls-9" points="178.36 488.22 179.54 496.1 170.26 501.07 169.93 491.55 174.8 487.81 178.36 488.22" />
            <polygon class="right-tree-cls-8" points="171.97 480.56 168.74 490.9 154.49 490.87 159.75 479.09 167.89 477.73 171.97 480.56" />
            <polygon class="right-tree-cls-8" points="149.65 462.43 151.95 471.54 141.58 478.56 140.11 467.41 145.41 462.39 149.65 462.43" />
            <polygon class="right-tree-cls-8" points="192.44 264.51 187.66 272.49 175.7 269.33 182.47 260.6 189.58 261.24 192.44 264.51" />
            <polygon class="right-tree-cls-7" points="170.87 316.47 161.13 319.08 153.68 307.89 165.61 306.16 170.94 311.87 170.87 316.47" />
            <polygon class="right-tree-cls-7" points="257.16 205.21 247.42 202.59 246.02 189.03 257.27 193.51 259.33 201.21 257.16 205.21" />
            <polygon class="right-tree-cls-8" points="213.12 454.56 219.54 461.16 214.07 472.77 207.36 463.97 209.46 456.81 213.12 454.56" />
            <polygon
                class="right-tree-cls-8"
                points="374.2 301.75 374.2 290.12 343.19 266.88 357.42 236.48 351.62 219.9 353.73 236.48 335.82 266.33 305.26 264.67 302.63 247.54 283.13 238.69 299.99 250.3 303.02 269.78 335.82 271.31 357.42 288.44 353.39 327.38 374.2 301.75"
            />
            <polygon class="right-tree-cls-8" points="242.18 346.06 246.52 375.08 240.99 393.32 246.92 391.25 250.47 374.25 242.18 346.06" />
            <path class="right-tree-cls-8" d="M374.2,691.94c-65.95,1.91-106.63,3.89-106.63,3.89H130.28L49.43,845.57H374.2Z" />
            <polygon class="right-tree-cls-9" points="374.2 675.12 367.98 641.8 369.63 685.5 365.93 659.74 362.36 684.94 360.24 621.34 357.23 685.5 351.91 655.54 349.96 697.13 374.2 697.57 374.2 675.12" />
            <polygon
                class="right-tree-cls-9"
                points="351.86 697.98 353.68 635.94 347.82 689.14 349.99 642.01 344.96 686.9 346.83 634.28 340.25 686.06 340.86 652.74 336.34 682.61 331.94 620.82 331.14 685.78 322.93 641.8 324.58 685.5 320.88 659.74 317.3 684.94 315.19 621.34 312.18 685.5 306.86 655.54 304.91 697.13 351.86 697.98"
            />
            <polygon
                class="right-tree-cls-9"
                points="314.82 697.98 316.63 635.94 310.77 689.14 312.95 642.01 307.92 686.9 309.78 634.28 303.2 686.06 303.81 652.74 299.29 682.61 294.9 620.82 294.1 685.78 285.88 641.8 287.54 685.5 283.83 659.74 280.26 684.94 278.14 621.34 275.14 685.5 269.81 655.54 267.87 697.13 314.82 697.98"
            />
            <path class="right-tree-cls-9" d="M374.2,691.94c-65.95,1.91-106.63,3.89-106.63,3.89v12.34c35.35,0,71.09-.1,106.63-.22Z" />
            <polygon
                class="right-tree-cls-9"
                points="374.2 566.27 372.28 565.47 372.95 571.15 372.95 571.15 374 580.02 370.67 569.59 370.67 569.59 369.08 564.6 355.15 560.38 364.23 581.86 363.67 582.94 355.96 571.29 352.01 565.33 347.4 582.33 351.85 589.1 351.85 589.1 356.24 595.77 345.68 585.24 345.6 598.6 354.14 606.16 354.14 606.16 358.55 610.06 358.56 610.14 354.69 607.74 354.69 607.73 347.38 603.18 348.48 606.99 357.06 613.3 357.06 613.3 357.63 613.72 357.2 613.6 357.2 613.6 346.82 610.76 352.3 627.42 371.34 635.27 365.75 634.62 369.77 640.62 374.2 642.73 374.2 566.27"
            />
            <polygon
                class="right-tree-cls-9"
                points="374.2 647.76 369.65 648.49 369.65 648.49 367.49 648.84 369.43 648.3 369.43 648.3 374.2 647 374.2 645.02 366.68 640.86 359.49 643.57 361.46 642.34 361.46 642.34 363.63 640.98 347.18 645.74 334.28 653 334.28 653 326.7 657.27 313.99 668.5 313.5 669.83 319.94 668.29 312.85 671.76 317.49 679.18 327.39 676.4 325.12 674.15 329.5 675.81 336.15 673.94 337.16 672.24 330.53 669.33 337.64 671.42 340.81 666.1 336.08 664.38 341.83 665.44 344.44 664.39 354.63 671.35 362.39 669.6 362.39 669.6 363.6 669.32 357.64 672.4 373.73 675.89 374.2 675.74 374.2 647.76"
            />
            <path
                class="right-tree-cls-8"
                d="M374.2,678.39v-1.54L364,680.4s4.45-2.89,9.46-6.79h0l.7-.56v-3.73a48.32,48.32,0,0,1-5.58,3.23s2.32-1.67,5.58-4.57V656.21a93.09,93.09,0,0,0-7.63,5.56s2.76-5,5.54-9.45c.43-.7.87-1.38,1.29-2l.06-.09.63-.94h0l.11-.16v-1.82l-.43.28-.32.2-.5.35-.34.24-.55.4-.34.26c-.67.51-1.37,1.08-2.1,1.73l-.45.39-.58.55-.5.49-.58.58q-.27.27-.54.57c-.19.2-.38.4-.56.61l-.12.12h0a41.82,41.82,0,0,0-3.37,4.3s.35-1.57.86-3.54l0-.09.15-.56c0-.11,0-.21.08-.32s.09-.3.13-.45.07-.26.11-.4l.12-.41c0-.15.09-.29.13-.44l.12-.39.14-.44.12-.37.15-.44.12-.34c.05-.16.11-.31.17-.46l.1-.27.27-.66-.06,0-.05,0-.13.08-.12.09-.18.12-.18.13-.23.18-.22.17-.43.36-.37.32-.32.29-.36.34-.33.33-.4.4L362,652c-.15.15-.29.3-.44.47l-.4.46c-.25.29-.5.58-.75.9l-.52.65c-.15.2-.3.41-.46.61l-.47.66-.48.69c-.16.24-.33.48-.49.73s-.32.5-.49.75l-.54.89c-.15.25-.3.49-.45.76a.35.35,0,0,1-.05.08h0a59.65,59.65,0,0,0-3.13,6.3s.3-2.11.79-4.74l.12-.65,0-.15c.06-.28.11-.55.17-.83l0-.15.18-.84v-.08l.21-.91a.75.75,0,0,1,0-.16c.06-.28.12-.55.19-.82l0-.12c.07-.28.14-.56.22-.83l.09-.32c.05-.19.11-.39.16-.57s.18-.57.27-.84l-.05,0h0l-.16.12h0a13.68,13.68,0,0,0-1.26,1.14h0l-.45.48,0,0-.5.57-.06.08c-.16.18-.32.38-.48.58a.76.76,0,0,1-.08.11l-.54.72-.12.16-.49.72-.11.16c-.19.29-.38.59-.57.91l-.14.23c-.17.29-.35.58-.52.89l-.11.19c-.2.36-.39.73-.59,1.12-.06.1-.11.21-.16.31-.18.35-.36.72-.53,1.1a1.24,1.24,0,0,0-.1.2c-.2.43-.4.89-.6,1.36-.05.12-.1.24-.16.36-.18.45-.36.9-.54,1.38a.87.87,0,0,0-.07.17c-.2.52-.4,1.07-.59,1.63-.05.14-.1.28-.14.42-.19.55-.37,1.12-.55,1.71l0,.1c-.19.61-.37,1.26-.55,1.91-.05.17-.09.33-.13.49-.18.68-.36,1.37-.53,2.09-.13-1.11-.23-2.19-.32-3.26h0q-.29-3.27-.3-6.3v-.21c0-.93,0-1.85.09-2.75l0-.48c.06-.89.15-1.78.26-2.63-.31.75-.59,1.51-.85,2.27-.09.27-.16.53-.24.79-.16.5-.32,1-.46,1.5-.08.31-.15.61-.22.92s-.24.92-.34,1.38c-.06.31-.11.62-.17.93s-.18.9-.25,1.35-.08.61-.12.92-.13.9-.18,1.35c0,.29-.05.58-.08.88,0,.45-.08.9-.11,1.35,0,.28,0,.55,0,.82,0,.46-.05.92-.06,1.37v.75c0,.46,0,.92,0,1.37V678h0a58.83,58.83,0,0,0,1.62,12.64l.06.06a29.11,29.11,0,0,0-4,12.31c-1-9.26-4.57-25.93-5.23-39.86a27.8,27.8,0,0,0,6.21-4.13v0l.22-.2.83-.74.45-.42c.32-.3.63-.61.94-.94l.33-.33c.43-.44.84-.9,1.25-1.38l.24-.28c.32-.39.65-.79,1-1.2.14-.17.26-.36.4-.54.25-.34.5-.69.75-1.06.14-.2.27-.41.41-.62s.45-.73.67-1.1.25-.43.37-.66c.23-.4.44-.82.64-1.24l.3-.59c.29-.63.56-1.27.8-1.93l-6.81,5.7a53.78,53.78,0,0,0,6.88-20.58c-.34.51-.69,1-1.05,1.51l-.29.41c-.34.48-.69,1-1,1.42-.08.1-.15.2-.23.29-.28.37-.57.74-.86,1.09-.12.16-.25.31-.37.46-.34.41-.67.8-1,1.17l-.36.38c-.25.28-.5.54-.76.79l-.39.39a13.34,13.34,0,0,1-3.63,2.6,34.54,34.54,0,0,0,3.21-5.19h0a43.79,43.79,0,0,0,4.39-20.28v0c0-.15,0-.26,0-.33v-.13c-.16.63-.34,1.24-.55,1.84-.06.2-.14.39-.21.59-.14.39-.29.78-.44,1.15s-.19.44-.29.67-.29.65-.45,1-.22.44-.33.66-.31.59-.47.88-.23.42-.35.62-.33.55-.49.82l-.36.56c-.17.26-.34.52-.52.77l-.33.49-.56.75c-.1.12-.19.26-.29.38l-.64.79a29.65,29.65,0,0,1-3.36,3.51,63,63,0,0,0,.93-8.75h0c0-.12,0-.23,0-.34s0-.41,0-.62l0-1.1c0-.15,0-.3,0-.45,0-.48,0-.94,0-1.4,0-.19,0-.37,0-.55s0-.61,0-.91,0-.34,0-.51c0-.42,0-.82,0-1.21,0-.13,0-.26,0-.39,0-.29,0-.57,0-.83s0-.28,0-.41c0-.29,0-.56,0-.82,0-.08,0-.17,0-.25,0-.3,0-.57-.06-.83,0-.1,0-.19,0-.29s0-.34,0-.5,0-.14,0-.21,0-.37-.05-.51v-.12c0-.11,0-.19,0-.25v-.18c-.07.8-.18,1.55-.3,2.28l-.09.49c-.12.7-.27,1.38-.43,2l0,.17c-.16.61-.33,1.19-.52,1.74a2.81,2.81,0,0,1-.1.31c-.2.59-.41,1.14-.62,1.66a21.8,21.8,0,0,1-3.17,5.51,81.39,81.39,0,0,0-.86-9.58h0a99.55,99.55,0,0,0-8-26.53v0l0,0v-.06l-.25-.58,0,.59v.08c0,.25,0,.5-.05.76s0,.23,0,.34c0,.38,0,.77-.05,1.16a1.55,1.55,0,0,0,0,.22q0,.71-.06,1.44c0,.1,0,.21,0,.31,0,.41,0,.83,0,1.26,0,.11,0,.22,0,.33,0,.51,0,1,0,1.56v.2l0,1.4c0,.14,0,.28,0,.42,0,.48,0,1,0,1.45v.26c0,.48,0,.95,0,1.43,0,.21,0,.42,0,.62s0,.62,0,.93v3.3c0,3.1,0,6,0,8.14h0c0,2.6.07,4.26.07,4.26-.94-1.15-1.87-2.39-2.74-3.61l-.11-.15c-.17-.24-.33-.48-.5-.71l-.15-.23c-.15-.2-.29-.41-.43-.61l-.17-.25-.44-.66-.09-.12-.51-.77-.1-.16-.37-.55-.15-.23c-.09-.16-.19-.31-.28-.45l-.13-.2-.28-.43-.08-.14-.31-.49-.06-.09-.2-.32-.07-.11a1.76,1.76,0,0,0-.12-.2l-.07-.11-.05-.1-.05-.06,0-.06.15,2c0,.22.05.43.07.65,0,.44.08.88.13,1.32,0,.25.05.5.08.76l.15,1.2c0,.26.06.52.1.77s.1.78.16,1.17.07.5.1.74c.06.41.12.81.19,1.2,0,.22.06.44.1.65.09.57.19,1.13.28,1.67l.15.85.12.67h0c1,5.46,2.05,9.37,2.05,9.37a16.55,16.55,0,0,1-3.82-3.27c-.08-.09-.17-.18-.25-.28l-.46-.51-.25-.29-.61-.72-.26-.32-.39-.48-.28-.35-.38-.49-.36-.47-.33-.44c-.09-.11-.17-.22-.25-.34a4.33,4.33,0,0,1-.27-.37l-.2-.27c-.14-.18-.26-.36-.38-.52l-.18-.25c-.06-.1-.13-.19-.19-.28l-.13-.19-.23-.33-.07-.11a1.36,1.36,0,0,1-.12-.17l0-.06,0-.06c.12,1,.27,1.89.44,2.8.05.31.12.6.18.9.12.59.24,1.19.38,1.76.07.33.16.66.25,1,.13.52.26,1,.41,1.52.09.33.19.65.29,1s.3.94.45,1.39l.32.9c.16.45.33.88.5,1.31.11.27.21.54.32.8.19.45.37.87.56,1.29.1.22.2.45.3.66q.34.74.69,1.41a37.8,37.8,0,0,0,5.73,8.56,23.21,23.21,0,0,1-5-2.61c-.41-.28-.8-.56-1.18-.84l-.13-.09c-.34-.25-.66-.5-1-.74l-.16-.13c-.68-.54-1.27-1.06-1.77-1.51l-.12-.11c-.22-.2-.43-.39-.6-.56l-.06,0-.5-.49-.05,0-.12-.12c-.05-.06-.12-.12-.16-.16l0,0-.09-.1a36.6,36.6,0,0,0,8.22,14.92,49.19,49.19,0,0,1-11.1-6.81c.49.84,1,1.63,1.54,2.4.17.24.35.47.52.7.38.52.77,1,1.17,1.51.2.25.41.49.62.73.4.45.8.89,1.21,1.32l.63.64c.46.46.94.9,1.42,1.33.16.14.31.29.47.42.65.57,1.32,1.1,2,1.61l.13.09q.94.71,1.89,1.32c.18.13.37.24.55.36.51.32,1,.63,1.52.93l.59.33c.52.29,1,.57,1.54.83.11.05.21.12.31.17h0a54.45,54.45,0,0,0,9.52,3.68c.37,11.55,3.59,31,5.19,41a24.36,24.36,0,0,0-6.93-10.22h0a67.06,67.06,0,0,0-1-10.25v0c0-.13-.05-.27-.07-.4q-.12-.68-.27-1.38c0-.25-.1-.5-.16-.76-.11-.53-.24-1.07-.37-1.61-.05-.19-.09-.39-.14-.58-.19-.75-.4-1.49-.62-2.25,0-.09-.07-.19-.1-.29-.2-.65-.41-1.29-.63-1.94l-.27-.72c-.19-.51-.38-1-.59-1.53l-.34-.82c-.21-.48-.42-1-.65-1.44l-.39-.81c-.25-.51-.52-1-.79-1.5-.12-.23-.24-.46-.38-.69-.41-.72-.84-1.43-1.3-2.12.29.81.55,1.67.81,2.54l.12.45c.25.87.47,1.77.68,2.7,0,.1,0,.21.07.32.44,2,.81,4.14,1.13,6.37.14,1,.28,2,.4,3-.32-.69-.63-1.34-.94-2l-.21-.41c-.3-.6-.6-1.19-.91-1.75l-.16-.3c-.27-.49-.54-1-.81-1.43l-.16-.29c-.3-.49-.59-1-.88-1.42l-.21-.34-.84-1.27-.09-.12c-.27-.39-.53-.75-.8-1.1l-.21-.29c-.27-.35-.53-.69-.78-1l-.19-.22-.65-.77c-.06-.07-.12-.13-.17-.2l-.72-.77-.2-.2-.65-.65-.1-.1-.6-.54-.17-.14c-.2-.18-.4-.34-.58-.49l-.13-.1-.48-.36-.1-.07-.49-.33-.1-.07c-.31-.2-.59-.36-.82-.48l0,0h0l-.54-.26h0l-.15-.07h0l-.05,0c.21.36.43.77.64,1.19l.1.2c.21.4.41.83.61,1.26,0,.09.09.18.13.27l.6,1.35a.61.61,0,0,1,.05.12c.2.46.4.92.58,1.37,1.16,2.79,2,5.25,2,5.25a49.58,49.58,0,0,0-5.29-6.58h0l-.09-.09-.51-.51-.61-.6-.52-.49-.57-.5-.48-.42c-.3-.26-.59-.5-.88-.72l-.49-.37-.43-.31c-.16-.12-.31-.23-.47-.33l-.39-.26-.42-.27c-.17-.11-.33-.21-.5-.3l-.51-.29-.3-.17-.31-.15-.28-.13-.24-.12-.32-.13-.23-.09-.19-.07-.11,0-.12,0-.05,0H303c.2.28.41.61.62,1l.07.11.62,1.07.08.15c.21.38.41.76.61,1.14,0,.06.06.11.08.16l.59,1.16c1,2,1.79,3.83,1.79,3.83a33.87,33.87,0,0,0-5.3-4.15h0l-.07,0-.52-.31-.64-.38-.53-.29-.6-.32-.49-.25c-.31-.15-.62-.3-.92-.43l-.48-.21-.5-.21-.46-.18-.46-.17-.41-.14c-.24-.08-.46-.16-.68-.22l-.38-.12-.36-.1-.32-.08-.32-.08-.25-.06-.4-.08-.18,0-.23,0-.12,0-.13,0h-.12a6.12,6.12,0,0,1,.55.33l.16.12a6.92,6.92,0,0,1,.6.46.2.2,0,0,1,.07.06c.24.19.49.41.76.64l.22.21.68.63.17.16.85.83.31.32c3.71,3.74,8,8.81,8,8.81-2.74-1.4-10.79-4-17.43-6.11l-.17-.05-.8-.25-.35-.11-.51-.15-.62-.2-.21-.06c-3.23-1-5.81-1.76-6.75-2h0l-.47-.19.4.55,0,0c.26.36.52.72.79,1.07.11.15.22.29.34.43.3.39.61.78.93,1.15l.32.39c.85,1,1.73,1.93,2.64,2.83l.28.28c.4.38.79.76,1.2,1.13a1.8,1.8,0,0,0,.2.19c1,.89,2,1.72,3,2.51l.11.09a71.06,71.06,0,0,0,17.58,10.12c-3.16-.37-8.83-2.26-13-3.79l-.65-.23-.31-.12-.83-.3-.28-.1c-.26-.11-.52-.2-.76-.29l-.17-.07-.72-.27h0l-.66-.25h0l-.93-.37c.24.29.51.57.79.85l.21.2c.3.28.6.55.93.82l.06,0c.32.26.66.52,1,.77l.25.18c.37.27.76.53,1.16.79l.07,0c.39.26.8.51,1.22.76l.2.11c.91.54,1.86,1,2.83,1.54l.08,0a107.08,107.08,0,0,0,15.31,6l-6.29,0h-5.65a11.15,11.15,0,0,0,2.21,1.46l0,0c.52.27,1.07.52,1.66.76l.13.06c.57.22,1.16.43,1.78.63l.22.07c.61.19,1.24.37,1.89.53l.28.07c.64.16,1.3.3,2,.43l.3.06c.68.13,1.36.24,2.06.35l.28,0c.72.1,1.43.18,2.15.26l.2,0c.75.07,1.5.14,2.25.18l-9.9,2.37c.56.07,1.14.12,1.73.16l.59,0c.4,0,.81,0,1.22,0h.72l1.17,0,.75,0,1.22-.08.71-.06,1.36-.14.58-.07c1.3-.16,2.6-.37,3.87-.6l.45-.09,1.41-.29.2,0h0a43.85,43.85,0,0,0,8.75-2.75c6.17,6.19,7.3,16.5,7.54,19.71l2-.26h0l.33,0c-.64-3.52-2.3-14.8,2.66-23.39a45.48,45.48,0,0,0,7.43-.52h0l.29-.05c.55-.08,1.12-.16,1.69-.26l.46-.08c.74-.12,1.48-.26,2.24-.41h0l2.2-.48.58-.14c.58-.14,1.16-.28,1.74-.44l.57-.15c.75-.2,1.5-.41,2.23-.64h0c.71-.22,1.41-.46,2.1-.7l.6-.22c.52-.19,1-.38,1.53-.58l.59-.24c.66-.28,1.31-.56,1.93-.86l-10.83,1.59C365,684.56,370.69,681.5,374.2,678.39Z"
            />
            <polygon
                class="right-tree-cls-14"
                points="348.35 727.64 347.4 704.86 345.51 724.22 345.32 706.44 343.52 723.24 342.98 702.86 340.12 722.7 339.38 709.04 336.96 721.03 330.91 693.2 332.68 722.12 322.89 700.01 326.41 721.59 321.38 708.36 318.3 720.77 312.91 686.54 311.75 720.64 302.54 702.23 301.37 727.12 348.35 727.64"
            />
            <polygon
                class="right-tree-cls-14"
                points="303.06 727.64 303.06 690.81 298.76 722.4 299.56 694.42 295.84 721.07 296.17 689.83 291.1 720.57 290.74 700.79 287.09 718.52 280.89 681.84 281.98 720.4 272.49 694.29 275.42 720.24 270.96 704.94 268.12 719.9 264.15 682.15 263.02 720.24 256.82 702.45 256.09 727.14 303.06 727.64"
            />
            <polygon
                class="right-tree-cls-14"
                points="211.46 727.64 211.46 690.81 207.15 722.4 207.96 694.42 204.24 721.07 204.56 689.83 199.5 720.57 199.13 700.79 195.48 718.52 189.28 681.84 190.38 720.4 180.88 694.29 183.81 720.24 179.35 704.94 176.52 719.9 172.54 682.15 171.41 720.24 165.21 702.45 164.48 727.14 211.46 727.64"
            />
            <polygon
                class="right-tree-cls-14"
                points="165.55 727.64 165.55 675.84 161.25 720.27 162.05 680.91 158.33 718.39 158.66 674.45 153.59 717.69 153.22 689.87 149.58 714.81 143.38 663.22 144.47 717.46 134.97 680.74 137.91 717.23 133.45 695.71 130.61 716.76 126.64 663.65 125.51 717.23 119.31 692.21 118.58 726.94 165.55 727.64"
            />
            <polygon
                class="right-tree-cls-14"
                points="257.1 728.06 257.1 698.88 252.79 723.91 253.6 701.74 249.88 722.85 250.2 698.1 245.14 722.46 244.77 706.78 241.13 720.83 234.93 691.76 236.02 722.33 226.52 701.63 229.45 722.19 225 710.07 222.16 721.93 218.19 692.01 217.05 722.19 210.85 708.1 210.13 727.67 257.1 728.06"
            />
            <polygon
                class="right-tree-cls-14"
                points="73.56 727.64 73.56 675.84 77.86 720.27 77.06 680.91 80.78 718.39 80.45 674.45 85.52 717.69 85.89 689.87 89.53 714.81 95.73 663.22 94.64 717.46 104.13 680.74 101.2 717.23 105.66 695.71 108.5 716.76 112.47 663.65 113.6 717.23 119.8 692.21 120.53 726.94 73.56 727.64"
            />
            <polygon
                class="right-tree-cls-14"
                points="313.21 727.53 313.21 690.7 317.52 722.28 316.71 694.31 320.43 720.95 320.11 689.71 325.18 720.46 325.54 700.67 329.19 718.4 335.39 681.72 334.29 720.29 343.79 694.18 340.86 720.12 345.31 704.83 348.15 719.79 352.13 682.03 353.26 720.12 359.46 702.34 360.19 727.03 313.21 727.53"
            />
            <polygon
                class="right-tree-cls-14"
                points="267.57 727.95 267.57 658.86 271.88 718.11 271.07 665.62 274.79 715.61 274.47 657 279.53 714.68 279.9 677.57 283.55 710.83 289.75 642.01 288.65 714.36 298.15 665.38 295.22 714.05 299.67 685.36 302.51 713.43 306.49 642.6 307.62 714.05 313.82 680.68 314.55 727.01 267.57 727.95"
            />
            <polygon class="right-tree-cls-14" points="374.2 717.05 371.5 706.67 371.14 722.34 366.07 697.98 366.4 722.74 362.68 701.62 363.48 723.79 359.18 698.76 359.18 727.95 374.2 727.82 374.2 717.05" />
            <path
                class="right-tree-cls-9"
                d="M374.2,108.4C275.1,91,250.13,149.56,250.13,149.56s-96.14-4.27-114.54-1.08-11.82,30.41-11.82,30.41S43.77,185,41.3,201c-7.62,49.46,201.23,131.09,201.23,131.09,26.8,25.75,84.32,34.68,96.24,36.31,7.42,1,23-6.41,35.43-17.61Z"
            />
            <path class="right-tree-cls-15" d="M374.2,244.26a204.84,204.84,0,0,0-21.81-17.16l-.05,7.32a149.16,149.16,0,0,1,21.86,17.47Z" />
            <path class="right-tree-cls-15" d="M374.2,271.2c-85.49-52.61-164.21-24-164.21-24l3,6s30-18.17,106.27,3c19.82,5.49,38.42,14.86,54.92,25.45Z" />
            <path
                class="right-tree-cls-7"
                d="M374.2,108.4C275.1,91,250.13,149.56,250.13,149.56s-96.14-4.27-114.54-1.08-11.82,30.41-11.82,30.41S43.77,185,41.3,201c-3.27,21.16,33.12,48.21,75.81,72.25,22-.87,43.26-5.7,58-17.14,0,0,66.54,13.16,105.1-24.06a290.67,290.67,0,0,0,31.42-.25c18,8,40.59,15.29,62.56,18.39Z"
            />
            <path
                class="right-tree-cls-16"
                d="M374.2,141.54C355,144.69,337,146.07,337,146.07s6.75,26.6-10.72,33.83c-54.43,22.51-115.65-4.5-115.65-4.5s-32.31,75.94-169.49,29.23c1,20.58,35.68,46,76,68.64,22-.87,43.26-5.7,58-17.14,0,0,66.54,13.16,105.1-24.06a290.67,290.67,0,0,0,31.42-.25c18,8,40.59,15.29,62.56,18.39Z"
            />
            <path class="right-tree-cls-7" d="M245.67,137.3l-1.95,3.13c-9.63,10.52-13-20.87-13-20.87C243.51,124.44,252.56,134.3,245.67,137.3Z" />
            <path class="right-tree-cls-7" d="M257.39,129.07l-3,1.21c-12.82,2.33-2.18-22.8-2.18-22.8C261.07,118.31,264.62,130.75,257.39,129.07Z" />
            <path class="right-tree-cls-16" d="M256.56,253.89l2.35-2.34c10.76-7,8.73,22.56,8.73,22.56C256.48,266.22,249.6,254.77,256.56,253.89Z" />
            <path class="right-tree-cls-16" d="M244.38,260.91l2.37-.23c9.66,1-1.26,16.57-1.26,16.57C240.35,267.75,239.31,258.23,244.38,260.91Z" />
            <polygon class="right-tree-cls-7" points="21.57 209.81 0 213.89 20.31 225.71 28.45 218.7 21.57 209.81" />
            <polygon class="right-tree-cls-7" points="32.46 203.26 19.64 198.43 23.02 207.69 30.56 216.28 36.88 211.35 32.46 203.26" />
            <polygon class="right-tree-cls-3" points="103.49 286.14 109.06 301.04 120.89 287.48 114.15 279.3 103.49 286.14" />
            <polygon class="right-tree-cls-3" points="96.17 285.7 107.73 278.56 96.1 273.3 77.88 280.59 96.17 285.7" />
            <polygon class="right-tree-cls-7" points="177.73 276.02 179.75 265.39 169.48 262.62 158.32 280.41 177.73 276.02" />
            <path class="right-tree-cls-17" d="M333.8,427s-13,22.66-39.74,16.76-30.42-24.52-30.42-24.52C290,429.18,333.8,427,333.8,427Z" />
            <path class="right-tree-cls-18" d="M364.22,398.76C359,422.35,333.8,427,333.8,427s-43.77,2.17-70.16-7.76c-22-6.52-20.8-26.39-20.8-26.39C305.55,413.35,364.22,398.76,364.22,398.76Z" />
            <path class="right-tree-cls-18" d="M374.2,305a38.14,38.14,0,0,0-25.65-23.58s-38.89-9.08-74.05-4.65c0,0-22.66,5.58-27.94,32.9,68.79-15.33,117.17-1,127.64,2.64Z" />
            <path class="right-tree-cls-17" d="M274.5,276.76s7-24.72,34.46-24.22c34.15.62,39.59,28.87,39.59,28.87S309.66,272.33,274.5,276.76Z" />
            <path class="right-tree-cls-17" d="M374.2,312.3c-10.47-3.61-58.85-18-127.64-2.64,0,0-14.59,7.14-11.79,26.39,81.77-6.42,122.2,1.32,139.43,6.75Z" />
            <path class="right-tree-cls-17" d="M374.2,375.58c-16.91.22-75.45-.14-144.09-13.45,0,0-6.52,19.24,12.73,30.73,62.71,20.49,121.38,5.9,121.38,5.9a29.78,29.78,0,0,0,10-9.18Z" />
            <path class="right-tree-cls-18" d="M374.2,342.8c-17.23-5.43-57.66-13.17-139.43-6.75,0,0-12.42,9-4.66,26.08,68.64,13.31,127.18,13.67,144.09,13.45Z" />
            <g class="right-tree-cls-19">
                <path
                    class="right-tree-cls-17"
                    d="M263.64,419.25s3.72,18.63,30.42,24.52S333.8,427,333.8,427,290,429.18,263.64,419.25Zm28,10.49c4.55-1.64,10.13-1.69,14.9-1.77s11.5.14,15.21,3.5c2.7,2.44-.64,5.64-2.77,6.94a11.8,11.8,0,0,1-1.41.74,23.25,23.25,0,0,1-5.54,2.23c-4.8,1.28-9.95.83-14.76-.12-3.16-.62-7.07-1.52-9-4.35C286.15,433.82,288.78,430.79,291.66,429.74Z"
                />
                <path
                    class="right-tree-cls-18"
                    d="M263.64,419.25C290,429.18,333.8,427,333.8,427s25.15-4.66,30.42-28.25c0,0-58.67,14.59-121.38-5.9C242.84,392.86,241.6,412.73,263.64,419.25Zm37.15-2.68c0-4,6.37-6.43,9.07-7.55a68.26,68.26,0,0,1,19.21-4.47c4.9-.52,10.17-1.39,14.9.55,3.42,1.41,6,5.11,4.49,9-1.79,4.69-7.7,7.25-11.82,8.69a37.64,37.64,0,0,1-17.34,1.7,50.1,50.1,0,0,1-10.92-2C305.72,421.69,300.83,420.33,300.79,416.57Z"
                />
                <path
                    class="right-tree-cls-18"
                    d="M374.2,309.58c-2.28.88-5.46-.05-7.63-.62-4.35-1.11-23.15-8-51.06-8.42-4-.07-8,0-11.95-.15-6-.3-15.34-1.22-17.75-7.89-4.19-11.59,9.68-15.48,18.84-16.75a181.29,181.29,0,0,0-30.15,1s-22.66,5.58-27.94,32.9c68.79-15.33,117.17-1,127.64,2.64Z"
                />
                <path
                    class="right-tree-cls-17"
                    d="M309,252.54a54,54,0,0,1,9.82,1.06,40.4,40.4,0,0,0-11.34,1.22,23.66,23.66,0,0,0-9.82,4.72c-2.25,2-5.1,4.83-4.73,8.11s4.44,3.89,7.07,3.91a122.94,122.94,0,0,1,17.66,1.51,146.63,146.63,0,0,1,28.53,7.82c-9-1.86-41.67-7.91-71.65-4.13C274.5,276.76,281.48,252,309,252.54Z"
                />
                <path
                    class="right-tree-cls-17"
                    d="M374.2,337.17c-7.89.57-18.32-2.09-22.08-2.67-10.67-1.67-22.46-3.67-33.07-5.75-4-.78-21.67-6.46-21.11-13.39a5.59,5.59,0,0,1,.87-2.45c4.23-7,17.09-6.18,24-6.17a214.82,214.82,0,0,1,27.28,2.09c8.19,1.06,16.74,2.19,24,6.31l0,0V312.3c-10.47-3.61-58.85-18-127.64-2.64,0,0-14.59,7.14-11.79,26.39,81.77-6.42,122.2,1.32,139.43,6.75Z"
                />
                <path
                    class="right-tree-cls-17"
                    d="M374.2,375.58c-16.91.22-75.45-.14-144.09-13.45,0,0-6.52,19.24,12.73,30.73,62.71,20.49,121.38,5.9,121.38,5.9a29.78,29.78,0,0,0,10-9.18Zm-8.13,14.71c-5.51,6.08-13.35,8.87-21.24,10-10.57,1.52-21.89,1-32-2.61C308.17,396,302,393,302,387.29s5.86-8.59,10.47-9.83c6.15-1.64,12.83-1.46,19.12-1,3,.2,5.95.39,8.94.66,6,.18,12.11-.14,18.06.8,3.45.54,8.19,1.83,9.85,5.29C369.61,385.72,367.71,388.46,366.07,390.29Z"
                />
                <path
                    class="right-tree-cls-18"
                    d="M374.2,369.63a29.09,29.09,0,0,1-11,3.32c-7.5,1-15.21.34-22.68-.62-6.29-.82-12.65-1.84-18.63-4a25.54,25.54,0,0,1-4.15-1.52,14.36,14.36,0,0,1-8-8.54c-1.53-4.69.84-9.66,4.33-12.75,8.36-7.39,21.34-6.92,31.67-5.64,8.36,1,17.16,2.46,24.73,6.36a21,21,0,0,1,3.74,2.45V342.8c-17.23-5.43-57.66-13.17-139.43-6.75,0,0-12.42,9-4.66,26.08,68.64,13.31,127.18,13.67,144.09,13.45Z"
                />
            </g>
            <g class="right-tree-cls-20">
                <path class="right-tree-cls-18" d="M274.5,276.76c1.14-.15,2.28-.27,3.42-.39C276.78,276.49,275.64,276.61,274.5,276.76Z" />
                <path class="right-tree-cls-18" d="M285.36,275.8h0l-2.91.18C283.41,275.91,284.39,275.85,285.36,275.8Z" />
                <path class="right-tree-cls-18" d="M281.52,276.05c-.87.07-1.74.14-2.6.23C279.78,276.19,280.65,276.12,281.52,276.05Z" />
                <path class="right-tree-cls-18" d="M285.9,275.77l-.55,0h0Z" />
                <path class="right-tree-cls-18" d="M292.13,443.31c-24.94-6.35-28.49-24.06-28.49-24.06a100.18,100.18,0,0,0,16.41,4.43C279.54,424.6,275.27,433.57,292.13,443.31Z" />
                <path class="right-tree-cls-18" d="M270.31,400.16s-3.1,16.29,9.78,23.44l0,.08a100.18,100.18,0,0,1-16.41-4.43c-22-6.52-20.8-26.39-20.8-26.39a215.71,215.71,0,0,0,30.83,7.56C272.59,400.37,271.48,400.28,270.31,400.16Z" />
                <path class="right-tree-cls-18" d="M278.92,276.28c.86-.09,1.73-.16,2.6-.23l.92-.07,2.91-.18c-2.94,1.19-16.51,7.87-16.2,29.36,0,0-.36.17-.9.5-7,1-14.21,2.33-21.69,4,5.28-27.32,27.94-32.9,27.94-32.9,1.14-.15,2.28-.27,3.42-.39Z" />
                <path class="right-tree-cls-18" d="M285.91,275.59l-.55.21c-1,.05-1.95.11-2.92.18l-.92.07c-.87.07-1.74.14-2.6.23l-1,.09c-1.14.12-2.28.24-3.42.39,0,0,6.51-23,31.7-24.18C301.36,254.27,287.07,260.52,285.91,275.59Z" />
                <path class="right-tree-cls-18" d="M285.9,275.77h0Z" />
                <path class="right-tree-cls-18" d="M282.44,276l-.92.07Z" />
                <path class="right-tree-cls-18" d="M278.92,276.28l-1,.09Z" />
                <path class="right-tree-cls-18" d="M260.53,316.8s12-9,28.87-.77a35,35,0,0,1,15.84,17.69l0,.07a685.43,685.43,0,0,0-70.5,2.26c-2.8-19.25,11.79-26.39,11.79-26.39,7.48-1.67,14.72-3,21.69-4C266.22,306.9,261.39,310.45,260.53,316.8Z" />
                <path class="right-tree-cls-18" d="M304.83,372.61c-8.4,20.81-14.68,28.6-31.16,27.81a215.71,215.71,0,0,1-30.83-7.56c-19.25-11.49-12.73-30.73-12.73-30.73A745.39,745.39,0,0,0,304.83,372.61Z" />
                <path class="right-tree-cls-18" d="M305.27,333.79c.55,1.07,8.35,17-.34,38.58l-.1.24a745.39,745.39,0,0,1-74.72-10.48c-7.76-17.08,4.66-26.08,4.66-26.08A685.43,685.43,0,0,1,305.27,333.79Z" />
            </g>
            <path class="right-tree-cls-21" d="M334.58,304.23s-29.34-4.89-80.1,4C254.48,308.19,279.16,298.18,334.58,304.23Z" />
            <path class="right-tree-cls-21" d="M332.48,278.15s-32.05-5.42-54.56-1.78C277.92,276.37,293.83,269.54,332.48,278.15Z" />
            <path class="right-tree-cls-21" d="M364.61,340.09s-25.14-7.46-58.44-6.52-.9.22-.9.22A592.93,592.93,0,0,1,364.61,340.09Z" />
            <path class="right-tree-cls-21" d="M362.05,375.48s-38.18-1.64-56.35-3C305.7,372.45,334.81,377.34,362.05,375.48Z" />
            <path class="right-tree-cls-21" d="M317.58,426.93s-31-.23-52.39-7.45C265.19,419.48,275.67,429.73,317.58,426.93Z" />
            <path class="right-tree-cls-22" d="M374.2,317.65c-4.23-3.07-11-6-21.7-7.37,0,0-19.32-2.79-30.73-1.86,0,0,33.63.53,52.43,13.48Z" />
            <path class="right-tree-cls-22" d="M371.29,300.81a42.71,42.71,0,0,0-28.8-19.71s-23.51-5-34.92-4C307.57,277.06,355.92,281.49,371.29,300.81Z" />
            <path class="right-tree-cls-22" d="M346.53,278.46s-5.9-19.09-29-23.75C317.5,254.71,329.3,256.89,346.53,278.46Z" />
            <path class="right-tree-cls-22" d="M374.2,351.75c-3.91-4-10.95-8.62-23.17-10.27,0,0-14.44-1.7-22.2-.93,0,0,29,.4,45.37,13.44Z" />
            <path class="right-tree-cls-22" d="M367.33,385.87s-.78-5.27-9.63-6.82S322,377.8,322,377.8,364.22,381.06,367.33,385.87Z" />
            <path class="right-tree-cls-22" d="M346.84,412.11s-1.86-7.3-10.71-7a102.73,102.73,0,0,0-19.25,3.11S339.08,403.42,346.84,412.11Z" />
            <path class="right-tree-cls-22" d="M320.14,433.84s-4.81,6.67-19.09,5.43C301.05,439.27,317,443.62,320.14,433.84Z" />
            <path class="right-tree-cls-23" d="M267.67,316.18s21.74-6.51,32.91,19.25-4.65,70.47-34.77,61.16c-12.44-3.85-20.06-15.53-22.18-27.73-2.08-11.91-2.19-26.86,4.63-37.34C252.15,325.56,260.65,318.07,267.67,316.18Z" />
            <path class="right-tree-cls-24" d="M271,319.84s19.77-5.93,29.93,17.51-4.23,64.1-31.62,55.63C258,389.48,251,378.85,249.1,367.75c-1.88-10.83-2-24.42,4.22-34C256.85,328.37,264.59,321.56,271,319.84Z" />
            <path class="right-tree-cls-25" d="M275.56,324.92s17-5.1,25.8,15.09S297.7,395.26,274.1,388c-9.76-3-15.73-12.17-17.39-21.74-1.63-9.34-1.72-21.05,3.63-29.27C263.39,332.27,270.06,326.4,275.56,324.92Z" />
            <path class="right-tree-cls-26" d="M282.4,337.2s12.78-3.83,19.35,11.31S299,390,281.3,384.48c-7.31-2.26-11.8-9.13-13-16.3-1.22-7-1.29-15.8,2.73-22C273.27,342.71,278.27,338.31,282.4,337.2Z" />
            <path class="right-tree-cls-27" d="M256.58,322.39s-13.74,10.24-14.21,33.3,11.18,36.32,20,39.81c0,0-24-7-22.82-39.81C240.57,327.8,256.58,322.39,256.58,322.39Z" />
            <path class="right-tree-cls-21" d="M329.69,403.18s-42.38,2.57-78.93-8.38C250.76,394.8,271.71,410.87,329.69,403.18Z" />
            <polygon class="right-tree-cls-28" points="364.1 371.64 368.95 364.99 365.62 357.46 357.43 356.58 352.58 363.24 355.91 370.76 364.1 371.64" />
            <polygon class="right-tree-cls-28" points="344.8 360.85 347.96 356.51 345.79 351.59 340.45 351.02 337.28 355.36 339.46 360.28 344.8 360.85" />
            <polygon class="right-tree-cls-28" points="357.37 356.4 360.21 352.51 358.26 348.1 353.47 347.59 350.63 351.48 352.58 355.89 357.37 356.4" />
            <polygon class="right-tree-cls-29" points="322.47 395.12 325.15 391.45 323.31 387.3 318.79 386.82 316.12 390.49 317.96 394.64 322.47 395.12" />
            <polygon class="right-tree-cls-29" points="331.08 390.72 332.82 388.33 331.63 385.62 328.68 385.3 326.93 387.7 328.13 390.4 331.08 390.72" />
            <polygon class="right-tree-cls-29" points="314.73 386.64 316.3 384.49 315.22 382.06 312.58 381.78 311.01 383.93 312.09 386.35 314.73 386.64" />
            <g class="right-tree-cls-20">
                <polygon class="right-tree-cls-30" points="285.53 420.27 288.21 416.6 286.37 412.44 281.85 411.97 279.18 415.63 281.02 419.78 285.53 420.27" />
                <polygon class="right-tree-cls-30" points="294.13 415.87 295.88 413.48 294.68 410.76 291.74 410.45 289.99 412.85 291.19 415.55 294.13 415.87" />
                <polygon class="right-tree-cls-30" points="255.23 408.01 256.58 406.16 255.65 404.07 253.38 403.82 252.03 405.67 252.96 407.76 255.23 408.01" />
            </g>
            <polygon class="right-tree-cls-28" points="322.7 325.59 324.28 322.88 322.71 320.15 319.57 320.15 318 322.87 319.56 325.59 322.7 325.59" />
            <polygon class="right-tree-cls-28" points="331.92 319.95 333.37 317.97 332.37 315.73 329.94 315.47 328.49 317.45 329.48 319.69 331.92 319.95" />
            <polygon class="right-tree-cls-28" points="312.06 317.87 313.17 316.35 312.4 314.62 310.53 314.42 309.41 315.94 310.18 317.67 312.06 317.87" />
            <path class="right-tree-cls-31" d="M178.86,392.2c.3,1.05-.9,2.31-2.68,2.82s-3.46.07-3.76-1,.9-2.31,2.68-2.82S178.57,391.15,178.86,392.2Z" />
            <path class="right-tree-cls-31" d="M174.48,388.48c.74,1.59.86,3.11.26,3.38s-1.68-.78-2.42-2.37-.85-3.11-.26-3.39S173.74,386.89,174.48,388.48Z" />
            <path class="right-tree-cls-31" d="M176.77,389.41c-.08,1.41-.58,2.52-1.11,2.49s-.89-1.2-.8-2.61.59-2.52,1.12-2.49S176.86,388,176.77,389.41Z" />
            <path class="right-tree-cls-32" d="M203.09,373.06c.66,2.33-2,5.13-6,6.26s-7.71.16-8.37-2.16,2-5.13,6-6.27S202.42,370.73,203.09,373.06Z" />
            <path class="right-tree-cls-32" d="M193.35,364.79c1.64,3.54,1.9,6.91.58,7.52s-3.74-1.74-5.39-5.28-1.91-6.91-.58-7.53S191.7,361.25,193.35,364.79Z" />
            <path class="right-tree-cls-32" d="M198.44,366.86c-.2,3.13-1.31,5.61-2.48,5.54s-2-2.67-1.77-5.8,1.3-5.61,2.48-5.54S198.63,363.73,198.44,366.86Z" />
            <path class="right-tree-cls-32" d="M145.93,389.52c.57,2-1.69,4.35-5.05,5.31s-6.52.13-7.09-1.84,1.7-4.35,5.05-5.3S145.37,387.55,145.93,389.52Z" />
            <path class="right-tree-cls-32" d="M137.68,382.52c1.4,3,1.62,5.85.49,6.37s-3.16-1.48-4.56-4.48-1.61-5.85-.49-6.37S136.29,379.52,137.68,382.52Z" />
            <path class="right-tree-cls-32" d="M142,384.27c-.17,2.65-1.11,4.75-2.11,4.69s-1.66-2.26-1.49-4.91,1.1-4.75,2.1-4.69S142.16,381.62,142,384.27Z" />
            <path class="right-tree-cls-31" d="M158.31,409.05c.44,1.52-1.31,3.36-3.91,4.1s-5.05.11-5.49-1.42,1.32-3.36,3.91-4.11S157.88,407.52,158.31,409.05Z" />
            <path class="right-tree-cls-31" d="M151.92,403.62c1.08,2.32,1.25,4.53.38,4.94s-2.45-1.15-3.53-3.47-1.25-4.53-.38-4.94S150.84,401.3,151.92,403.62Z" />
            <path class="right-tree-cls-31" d="M155.26,405c-.13,2-.85,3.68-1.62,3.63s-1.29-1.75-1.17-3.81.86-3.67,1.63-3.63S155.39,402.93,155.26,405Z" />
        </g>
    </g>
</svg>
